<svg width="16" height="16" viewBox="0 0 16 16" fill="#004276" xmlns="http://www.w3.org/2000/svg">
<g id="material-symbols:assignment-outline">
<path id="Vector" d="M3.33333 13.9993C2.96667 13.9993 2.65267 13.8687 2.39133 13.6073C2.13 13.346 1.99956 13.0322 2 12.666V3.33268C2 2.96602 2.13067 2.65202 2.392 2.39068C2.65333 2.12935 2.96711 1.9989 3.33333 1.99935H6.13333C6.27778 1.59935 6.51956 1.27713 6.85867 1.03268C7.19778 0.788238 7.57822 0.666016 8 0.666016C8.42222 0.666016 8.80289 0.788238 9.142 1.03268C9.48111 1.27713 9.72267 1.59935 9.86667 1.99935H12.6667C13.0333 1.99935 13.3473 2.13002 13.6087 2.39135C13.87 2.65268 14.0004 2.96646 14 3.33268V12.666C14 13.0327 13.8693 13.3467 13.608 13.608C13.3467 13.8693 13.0329 13.9998 12.6667 13.9993H3.33333ZM3.33333 12.666H12.6667V3.33268H3.33333V12.666ZM4.66667 11.3327H9.33333V9.99935H4.66667V11.3327ZM4.66667 8.66602H11.3333V7.33268H4.66667V8.66602ZM4.66667 5.99935H11.3333V4.66602H4.66667V5.99935ZM8 2.83268C8.14445 2.83268 8.26378 2.78535 8.358 2.69068C8.45222 2.59602 8.49956 2.47668 8.5 2.33268C8.5 2.18824 8.45267 2.0689 8.358 1.97468C8.26333 1.88046 8.144 1.83313 8 1.83268C7.85556 1.83268 7.73622 1.88002 7.642 1.97468C7.54778 2.06935 7.50045 2.18868 7.5 2.33268C7.5 2.47713 7.54734 2.59646 7.642 2.69068C7.73667 2.7849 7.856 2.83224 8 2.83268Z" fill="#004276"/>
</g>
</svg>
