<svg width="602" height="650" viewBox="0 0 602 650" fill="none" xmlns="http://www.w3.org/2000/svg">
<path opacity="0.1" d="M497.44 581.33H347.45V600.74H497.44V581.33Z" fill="#6C63FF"/>
<path opacity="0.1" d="M167.32 273.01H139.43V300.9H167.32V273.01Z" fill="#6C63FF"/>
<path opacity="0.1" d="M167.32 337.81H139.43V365.7H167.32V337.81Z" fill="#6C63FF"/>
<path opacity="0.1" d="M167.32 402.6H139.43V430.49H167.32V402.6Z" fill="#6C63FF"/>
<path opacity="0.1" d="M167.32 467.4H139.43V495.29H167.32V467.4Z" fill="#6C63FF"/>
<path opacity="0.1" d="M167.32 532.2H139.43V560.09H167.32V532.2Z" fill="#6C63FF"/>
<path opacity="0.1" d="M167.32 596.99H139.43V624.88H167.32V596.99Z" fill="#6C63FF"/>
<path opacity="0.1" d="M0.0999756 350.75V366.75H106.77V350.75H0.0999756ZM9.59998 365.75H1.76997V351.75H9.59998V365.75ZM19.1 365.75H11.27V351.75H19.1V365.75ZM28.6 365.75H20.77V351.75H28.6V365.75ZM38.1 365.75H30.27V351.75H38.1V365.75ZM47.6 365.75H39.77V351.75H47.6V365.75ZM57.1 365.75H49.27V351.75H57.1V365.75ZM66.6 365.75H58.77V351.75H66.6V365.75ZM76.1 365.75H68.27V351.75H76.1V365.75ZM85.6 365.75H77.77V351.75H85.6V365.75ZM95.1 365.75H87.27V351.75H95.1V365.75ZM105.1 365.75H96.77V351.75H105.1V365.75Z" fill="#6C63FF"/>
<path opacity="0.1" d="M0.0999756 397.21V413.16H106.77V397.21H0.0999756ZM9.59998 412.16H1.76997V398.21H9.59998V412.16ZM19.1 412.16H11.27V398.21H19.1V412.16ZM28.6 412.16H20.77V398.21H28.6V412.16ZM38.1 412.16H30.27V398.21H38.1V412.16ZM47.6 412.16H39.77V398.21H47.6V412.16ZM57.1 412.16H49.27V398.21H57.1V412.16ZM66.6 412.16H58.77V398.21H66.6V412.16ZM76.1 412.16H68.27V398.21H76.1V412.16ZM85.6 412.16H77.77V398.21H85.6V412.16ZM95.1 412.16H87.27V398.21H95.1V412.16ZM105.1 412.16H96.77V398.21H105.1V412.16Z" fill="#6C63FF"/>
<path opacity="0.1" d="M0.0999756 443.66V459.61H106.77V443.66H0.0999756ZM9.59998 458.61H1.76997V444.66H9.59998V458.61ZM19.1 458.61H11.27V444.66H19.1V458.61ZM28.6 458.61H20.77V444.66H28.6V458.61ZM38.1 458.61H30.27V444.66H38.1V458.61ZM47.6 458.61H39.77V444.66H47.6V458.61ZM57.1 458.61H49.27V444.66H57.1V458.61ZM66.6 458.61H58.77V444.66H66.6V458.61ZM76.1 458.61H68.27V444.66H76.1V458.61ZM85.6 458.61H77.77V444.66H85.6V458.61ZM95.1 458.61H87.27V444.66H95.1V458.61ZM105.1 458.61H96.77V444.66H105.1V458.61Z" fill="#6C63FF"/>
<path opacity="0.1" d="M0.0999756 490.07V506.07H106.77V490.07H0.0999756ZM9.59998 505.07H1.76997V491.07H9.59998V505.07ZM19.1 505.07H11.27V491.07H19.1V505.07ZM28.6 505.07H20.77V491.07H28.6V505.07ZM38.1 505.07H30.27V491.07H38.1V505.07ZM47.6 505.07H39.77V491.07H47.6V505.07ZM57.1 505.07H49.27V491.07H57.1V505.07ZM66.6 505.07H58.77V491.07H66.6V505.07ZM76.1 505.07H68.27V491.07H76.1V505.07ZM85.6 505.07H77.77V491.07H85.6V505.07ZM95.1 505.07H87.27V491.07H95.1V505.07ZM105.1 505.07H96.77V491.07H105.1V505.07Z" fill="#6C63FF"/>
<path opacity="0.1" d="M0.51001 536.56C0.89001 538.06 1.32001 539.56 1.77001 541.04V537.56H9.60001V551.56H5.42001C5.54001 551.89 5.67001 552.23 5.81001 552.56H106.81V536.56H0.51001ZM19.1 551.56H11.27V537.56H19.1V551.56ZM28.6 551.56H20.77V537.56H28.6V551.56ZM38.1 551.56H30.27V537.56H38.1V551.56ZM47.6 551.56H39.77V537.56H47.6V551.56ZM57.1 551.56H49.27V537.56H57.1V551.56ZM66.6 551.56H58.77V537.56H66.6V551.56ZM76.1 551.56H68.27V537.56H76.1V551.56ZM85.6 551.56H77.77V537.56H85.6V551.56ZM95.1 551.56H87.27V537.56H95.1V551.56ZM105.1 551.56H96.77V537.56H105.1V551.56Z" fill="#6C63FF"/>
<path opacity="0.1" d="M22.68 583.01C22.92 583.34 23.16 583.68 23.41 584.01H28.6V590.72C29.15 591.39 29.71 592.05 30.27 592.72V584.02H38.1V598.02H34.93C35.24 598.35 35.55 598.69 35.88 599.02H106.77V583.02L22.68 583.01ZM47.6 598.01H39.77V584.01H47.6V598.01ZM57.1 598.01H49.27V584.01H57.1V598.01ZM66.6 598.01H58.77V584.01H66.6V598.01ZM76.1 598.01H68.27V584.01H76.1V598.01ZM85.6 598.01H77.77V584.01H85.6V598.01ZM95.1 598.01H87.27V584.01H95.1V598.01ZM105.1 598.01H96.77V584.01H105.1V598.01Z" fill="#6C63FF"/>
<path opacity="0.1" d="M75.04 629.46C75.94 629.97 76.85 630.46 77.77 630.95V630.46H85.6V634.88L87.27 635.64V630.46H95.1V638.95L96.77 639.59V630.46H105.1V642.46L106.77 642.98V629.46H75.04Z" fill="#6C63FF"/>
<path opacity="0.1" d="M341.38 293.51C341.38 293.51 333.23 315.95 350.05 318C350.82 318.379 351.69 318.505 352.536 318.359C353.382 318.214 354.161 317.804 354.76 317.19C354.76 317.19 353.59 316.8 354.67 314.61C355.048 313.832 355.337 313.013 355.53 312.17C355.783 311.024 355.657 309.828 355.17 308.76C355.17 308.76 354.42 301.55 344.66 295.94C344.66 295.94 342.92 293.41 342.31 293.31L342.81 297.66C342.81 297.66 345.98 297.16 347.99 298.88C347.99 298.88 342.99 297.53 342.86 298.31C342.86 298.46 343.23 300.6 343.23 300.6C343.23 300.6 348.75 299.76 351.76 302.52C351.76 302.52 345.98 300.1 343.37 301.41L344.15 304.59C344.15 304.59 349.94 303.43 353.49 306.43C353.49 306.43 347.37 304.12 344.37 305.28L345.56 308.28C345.56 308.28 351.23 307.28 354.17 309.77C354.17 309.77 346.81 307.77 345.88 308.95C346.392 310.114 347.044 311.212 347.82 312.22C347.82 312.22 351.91 311.58 353.48 313.22C353.48 313.22 348.43 312.43 348.25 312.95C348.25 312.95 350.84 316.05 352.98 316.95C350.97 316.239 349.181 315.015 347.79 313.4C347.658 314.708 347.911 316.025 348.52 317.19C348.52 317.19 346.34 316.19 347.17 312.64C347.17 312.64 345.25 310.15 345.25 309.64C345.25 309.64 343.93 313.01 344.25 315.39C344.25 315.39 342.65 312.9 344.91 308.85L343.65 305.85C343.65 305.85 341.65 310.22 341.79 312.36C341.79 312.36 340.55 309.57 343.39 305.06L342.6 301.95C341.553 303.839 340.757 305.856 340.23 307.95C340.23 307.95 339.63 305.12 342.4 301.01L342.11 298.87C342.11 298.87 340.71 301.55 340.38 302.36C340.05 303.17 339.8 303.14 339.8 303.14C340.03 301.249 340.782 299.459 341.97 297.97C341.97 297.97 341.65 293.51 341.38 293.51Z" fill="#6C63FF"/>
<path opacity="0.1" d="M273.51 458.07C273.51 458.07 265.36 480.52 282.18 482.57C282.951 482.949 283.822 483.074 284.669 482.927C285.515 482.779 286.293 482.367 286.89 481.75C286.89 481.75 285.72 481.36 286.8 479.18C287.184 478.401 287.473 477.578 287.66 476.73C287.918 475.585 287.792 474.386 287.3 473.32C287.3 473.32 286.55 466.11 276.79 460.51C276.79 460.51 275.05 457.98 274.44 457.88L274.94 462.22C274.94 462.22 278.12 461.73 280.12 463.45C280.12 463.45 275.12 462.1 274.99 462.87C274.99 463.03 275.36 465.16 275.36 465.16C275.36 465.16 280.88 464.33 283.89 467.08C283.89 467.08 278.11 464.67 275.5 465.97L276.28 469.16C276.28 469.16 282.07 467.99 285.62 471C285.62 471 279.5 468.68 276.5 469.84L277.69 472.84C277.69 472.84 283.36 471.84 286.3 474.33C286.3 474.33 278.95 472.33 278.01 473.52C278.522 474.684 279.174 475.782 279.95 476.79C279.95 476.79 284.04 476.14 285.62 477.79C285.62 477.79 280.56 477 280.38 477.53C280.38 477.53 282.97 480.62 285.11 481.53C283.1 480.825 281.31 479.604 279.92 477.99C279.788 479.294 280.042 480.609 280.65 481.77C280.65 481.77 278.47 480.77 279.3 477.23C279.3 477.23 277.39 474.73 277.38 474.23C277.38 474.23 276.06 477.61 276.38 479.98C276.38 479.98 274.78 477.5 277.04 473.44L275.78 470.44C275.78 470.44 273.78 474.81 273.93 476.94C273.93 476.94 272.69 474.16 275.53 469.65L274.73 466.54C273.682 468.428 272.885 470.445 272.36 472.54C272.36 472.54 271.76 469.7 274.53 465.6L274.24 463.45C274.24 463.45 272.84 466.13 272.51 466.94C272.18 467.75 271.93 467.72 271.93 467.72C272.161 465.827 272.916 464.037 274.11 462.55C274.11 462.55 273.78 458.07 273.51 458.07Z" fill="#6C63FF"/>
<path opacity="0.1" d="M241.17 246.48C241.17 246.48 233.03 268.92 249.84 270.97C250.612 271.348 251.484 271.473 252.331 271.328C253.178 271.183 253.958 270.774 254.56 270.16C254.56 270.16 253.38 269.77 254.47 267.58C254.847 266.799 255.132 265.977 255.32 265.13C255.576 263.989 255.453 262.795 254.97 261.73C254.97 261.73 254.22 254.52 244.45 248.91C244.45 248.91 242.71 246.38 242.1 246.28L242.61 250.63C242.61 250.63 245.78 250.13 247.78 251.85C247.78 251.85 242.78 250.5 242.65 251.28C242.65 251.43 243.02 253.57 243.02 253.57C243.02 253.57 248.54 252.73 251.56 255.49C251.56 255.49 245.78 253.07 243.16 254.38L243.94 257.56C243.94 257.56 249.73 256.39 253.29 259.4C253.29 259.4 247.16 257.08 244.16 258.25L245.35 261.25C245.35 261.25 251.02 260.25 253.96 262.75C253.96 262.75 246.61 260.75 245.67 261.93C246.182 263.094 246.834 264.192 247.61 265.2C247.61 265.2 251.7 264.56 253.28 266.2C253.28 266.2 248.23 265.41 248.05 265.93C248.05 265.93 250.63 269.03 252.77 269.93C250.762 269.216 248.973 267.993 247.58 266.38C247.447 267.688 247.701 269.005 248.31 270.17C248.31 270.17 246.13 269.17 246.97 265.62C246.97 265.62 245.05 263.13 245.04 262.62C245.04 262.62 243.73 265.99 244.04 268.37C244.04 268.37 242.43 265.88 244.7 261.83L243.43 258.83C243.43 258.83 241.43 263.2 241.58 265.34C241.58 265.34 240.34 262.55 243.18 258.04L242.38 254.93C241.333 256.819 240.537 258.836 240.01 260.93C240.01 260.93 239.42 258.1 242.18 253.99L241.9 251.85C241.9 251.85 240.49 254.53 240.16 255.33C239.83 256.13 239.58 256.12 239.58 256.12C239.811 254.227 240.566 252.437 241.76 250.95C241.76 250.95 241.45 246.48 241.17 246.48Z" fill="#6C63FF"/>
<path opacity="0.1" d="M301.61 368.68C301.61 368.68 307.9 391.68 322.82 383.68C323.668 383.545 324.451 383.146 325.058 382.538C325.666 381.931 326.065 381.148 326.2 380.3C326.2 380.3 325.02 380.66 324.65 378.25C324.509 377.395 324.267 376.559 323.93 375.76C323.487 374.674 322.695 373.767 321.68 373.18C321.68 373.18 316.91 367.72 305.68 368.76C305.68 368.76 302.8 367.71 302.24 367.98L305.16 371.23C305.16 371.23 307.47 369 310.1 369.23C310.1 369.23 305.21 371.03 305.57 371.72C305.65 371.86 307.19 373.38 307.19 373.38C307.19 373.38 311.19 369.51 315.27 370.02C315.27 370.02 309.16 371.38 307.78 373.96L310.25 376.11C310.25 376.11 314.31 371.82 318.95 372.22C318.95 372.22 312.6 373.86 310.82 376.54L313.54 378.33C313.54 378.33 317.54 374.22 321.44 374.59C321.44 374.59 314.3 377.22 314.19 378.7C315.282 379.357 316.451 379.878 317.67 380.25C317.67 380.25 320.67 377.37 322.86 377.78C322.86 377.78 318.27 380.05 318.43 380.58C318.43 380.58 322.33 381.58 324.58 381.1C322.531 381.681 320.366 381.715 318.3 381.2C318.943 382.345 319.91 383.273 321.08 383.87C321.08 383.87 318.72 384.3 317.36 380.93C317.36 380.93 314.36 380 314.04 379.58C314.04 379.58 314.92 383.1 316.54 384.86C316.54 384.86 313.8 383.75 313.31 379.13L310.54 377.4C310.54 377.4 311.45 382.11 312.77 383.78C312.77 383.78 310.15 382.22 309.87 376.9L307.43 374.82C307.668 376.978 308.185 379.096 308.97 381.12C308.97 381.12 306.86 379.12 306.75 374.2L305.28 372.61C305.28 372.61 305.68 375.61 305.87 376.46C306.06 377.31 305.87 377.46 305.87 377.46C304.969 375.78 304.554 373.883 304.67 371.98C304.67 371.98 301.84 368.53 301.61 368.68Z" fill="#6C63FF"/>
<path d="M408.23 620.2C408.23 620.2 460.11 602.73 449.37 540.83L383.47 523.72L368.17 574.51L408.23 620.2Z" fill="#CED7E7"/>
<path opacity="0.1" d="M368.17 574.51L408.22 620.2C408.22 620.2 460.1 602.73 449.36 540.83L368.17 574.51Z" fill="black"/>
<path d="M150.17 117.21C150.17 117.21 157.17 128.6 166.74 122.91C176.31 117.22 167.13 101.5 167.13 101.5C167.13 101.5 148.8 98.99 150.17 117.21Z" fill="#FED253"/>
<path opacity="0.1" d="M166.74 122.91C165.611 123.64 164.345 124.132 163.019 124.356C161.693 124.58 160.336 124.53 159.03 124.21C155.52 123.32 152.82 120.62 151.37 118.85C150.937 118.331 150.537 117.787 150.17 117.22C149.68 110.72 151.7 106.85 154.5 104.57C158.35 101.44 163.68 101.31 165.98 101.41C166.69 101.41 167.1 101.51 167.1 101.51L167.29 101.83C167.56 102.34 168.15 103.47 168.78 104.98C170.92 109.93 173.47 118.9 166.74 122.91Z" fill="black"/>
<path d="M413.33 537.92L449.33 540.83L516.33 541.38L463.54 606.38C463.54 606.38 446.79 607.29 443.34 609.65C439.89 612.01 391.45 610.75 391.45 610.75L383.63 577.43L413.33 537.92Z" fill="#FFA2A2"/>
<path opacity="0.05" d="M413.33 537.92L449.33 540.83L516.33 541.38L463.54 606.38C463.54 606.38 446.79 607.29 443.34 609.65C439.89 612.01 391.45 610.75 391.45 610.75L383.63 577.43L413.33 537.92Z" fill="black"/>
<path d="M376.92 363.16L385.29 377.36L387.11 402.12C387.11 402.12 392.94 423.23 397.31 429.42C401.68 435.61 403.5 452 403.5 452C403.5 452 405.32 467.29 407.5 470.56C409.68 473.83 412.6 497.56 412.6 497.56C412.6 497.56 431.9 536.15 449.37 540.88C449.37 540.88 362.72 569.28 408.23 620.25C408.23 620.25 375.83 628.25 368.18 619.16C360.53 610.07 340.51 475.35 340.51 475.35L346.7 361.75L376.92 363.16Z" fill="#CED7E7"/>
<path opacity="0.05" d="M376.92 363.16L385.29 377.36L387.11 402.12C387.11 402.12 392.94 423.23 397.31 429.42C401.68 435.61 403.5 452 403.5 452C403.5 452 405.32 467.29 407.5 470.56C409.68 473.83 412.6 497.56 412.6 497.56C412.6 497.56 431.9 536.15 449.37 540.88C449.37 540.88 362.72 569.28 408.23 620.25C408.23 620.25 375.83 628.25 368.18 619.16C360.53 610.07 340.51 475.35 340.51 475.35L346.7 361.75L376.92 363.16Z" fill="black"/>
<path d="M271.79 224.77C269.358 237.384 270.08 250.402 273.89 262.67L260.41 301.26C260.41 301.26 157.74 244.1 166.48 230.26C171.43 222.41 172.06 201.64 171.66 185.14C171.37 172.6 170.48 162.54 170.48 162.54C170.48 162.54 296.48 174.93 279.71 203.69C275.915 210.227 273.238 217.351 271.79 224.77Z" fill="#FFA2A2"/>
<path opacity="0.1" d="M279.71 203.69C275.915 210.227 273.238 217.351 271.79 224.77C253.091 230.752 232.898 230.073 214.643 222.848C196.389 215.623 181.2 202.298 171.66 185.14C171.37 172.6 170.48 162.54 170.48 162.54C170.48 162.54 296.45 174.93 279.71 203.69Z" fill="black"/>
<path d="M330.68 141.79C330.689 155.139 327.547 168.301 321.512 180.207C315.476 192.113 306.716 202.427 295.943 210.311C285.171 218.194 272.69 223.424 259.516 225.576C246.342 227.727 232.846 226.74 220.125 222.694C207.405 218.648 195.818 211.658 186.307 202.291C176.797 192.924 169.631 181.445 165.392 168.788C161.153 156.13 159.96 142.65 161.911 129.445C163.862 116.24 168.902 103.681 176.62 92.79C177.82 91.1033 179.083 89.4567 180.41 87.85C187.969 78.6622 197.376 71.1667 208.02 65.85C213.795 62.961 219.886 60.7528 226.17 59.27C237.518 56.5817 249.297 56.2572 260.775 58.3166C272.253 60.3759 283.185 64.7752 292.89 71.2406C302.596 77.7061 310.867 86.0994 317.189 95.8984C323.511 105.698 327.749 116.693 329.64 128.2C330.346 132.695 330.694 137.24 330.68 141.79Z" fill="#FFA2A2"/>
<path d="M364.17 490.6C362.9 497.38 364.49 509.77 366.9 522.38C367 522.93 367.11 523.48 367.22 524.03C367.33 524.58 367.49 525.43 367.63 526.12C368.74 531.54 369.95 536.91 371.13 541.79C372.31 546.67 373.37 550.85 374.27 554.29C375.63 559.44 376.56 562.68 376.56 562.68C376.56 562.68 376.68 565.86 376.84 570.92C376.93 573.84 377.03 577.4 377.13 581.33C377.13 582.47 377.2 583.63 377.23 584.83C377.28 586.92 377.33 589.09 377.38 591.31C377.38 592.03 377.38 592.75 377.43 593.48C377.43 595.87 377.52 598.31 377.56 600.74C377.61 604.08 377.65 607.42 377.67 610.66C377.67 611.9 377.67 613.12 377.67 614.32C377.67 617.42 377.67 620.39 377.67 623.12C377.56 630.87 377.25 636.72 376.59 638.41C376.36 638.99 376.15 639.62 375.95 640.28C375.083 643.384 374.454 646.55 374.07 649.75L372.37 648.36C369.12 645.68 365.9 642.94 362.63 640.28C357.195 635.727 351.425 631.589 345.37 627.9C344.96 627.66 344.55 627.42 344.13 627.19C343.01 626.54 341.87 625.93 340.71 625.35C338.32 624.145 335.87 623.064 333.37 622.11C321.82 617.71 309.45 616.11 296.91 616.38C291.91 618.29 288.66 619.66 288.66 619.66L282.3 621.58L281.24 621.9C274.35 624 264.66 626.98 261.17 628.22C255.53 630.22 206.56 640.41 206.56 640.41C202.086 641.631 197.516 642.468 192.9 642.91C184.494 645.274 175.938 647.065 167.29 648.27C147.637 650.782 127.677 649.175 108.68 643.55C108.113 643.584 107.544 643.567 106.98 643.5C107.33 643.5 107.67 643.42 107.98 643.36L106.76 643L105.09 642.48C102.29 641.6 99.5133 640.637 96.76 639.59L95.09 638.95C92.4233 637.923 89.8133 636.82 87.26 635.64L85.59 634.88C82.9233 633.64 80.3133 632.33 77.76 630.95C76.84 630.47 75.93 629.95 75.03 629.46C72.31 627.94 69.6433 626.347 67.03 624.68C66.59 620.91 66.36 618.39 66.36 618.39L62.46 598.97L62.26 597.97L59.46 583.97L59.26 582.97L53.17 552.51L52.97 551.51L50.17 537.51L49.97 536.51L43.8 506.07L43.6 505.07L40.8 491.07L40.6 490.07L34.48 459.57L34.28 458.57L31.48 444.62L31.28 443.62L30.17 438.12L28.5 429.79C28.5 429.79 23.17 422.17 17.17 413.16L16.5 412.16C14.79 409.63 13.03 407 11.32 404.42C10.75 403.57 10.2 402.73 9.64999 401.9C8.81665 400.64 8.00998 399.41 7.22998 398.21L6.68998 397.38L6.57999 397.21C-2.04001 383.87 3.72998 378.07 3.72998 378.07C3.72998 378.07 7.34998 373.17 12.02 366.69C12.25 366.36 12.49 366.03 12.74 365.69C14.74 362.89 16.94 359.83 19.1 356.77L20.77 354.39C21.4 353.5 22.02 352.61 22.62 351.73C22.86 351.4 23.09 351.06 23.31 350.73C27.92 344.07 31.72 338.26 32.5 336.2C33.72 332.95 41.5 323.34 49.25 314.91C55.36 308.25 61.44 302.33 64.17 300.91C70.36 297.64 72.91 287.07 72.91 287.07C72.91 287.07 86.38 282.35 88.2 278.71C90.02 275.07 115.51 258.71 115.51 258.71C115.51 258.71 125.82 252.07 129.99 248.07C130.58 247.547 131.095 246.945 131.52 246.28C132.97 243.68 142.44 241.54 146.29 240.77C147.29 240.57 147.91 240.46 147.91 240.46C149.464 237.636 151.429 235.058 153.74 232.81C155.31 231.42 157.27 226.63 158.92 221.99C160.71 216.93 162.1 212.06 162.1 212.06C165.02 202.23 170.84 205.14 170.84 205.14C170.832 206.483 170.959 207.823 171.22 209.14C173.65 221.14 186.85 226.14 193.78 231.75C201.43 237.93 213.44 253.96 222.91 257.23C230.75 259.94 239.84 270.16 242.72 273.57L242.94 273.83C243.42 274.39 243.66 274.71 243.66 274.71C243.66 274.71 249.03 274.43 252.3 274.37H253.49C254.155 274.303 254.787 274.046 255.31 273.63C258.56 271.42 263.4 264.94 265.51 263.45C268.05 261.62 270.61 232.13 270.61 232.13L270.74 232.07C279.81 227.82 289.54 270.36 289.54 270.36C289.54 270.36 306.65 275.46 308.11 279.1C308.39 279.82 309.68 281.1 311.62 282.65C320.453 289.401 329.855 295.373 339.72 300.5C339.94 300.61 340.15 300.72 340.37 300.81C340.568 300.917 340.772 301.014 340.98 301.1C341.35 301.28 341.71 301.44 342.05 301.59C342.59 301.83 343.09 302.03 343.55 302.19L344.15 302.4C345.583 302.877 346.933 303.575 348.15 304.47C348.51 304.73 348.87 305 349.22 305.29C350.582 306.423 351.834 307.682 352.96 309.05C353.13 309.25 353.29 309.46 353.45 309.66C354.21 310.61 354.89 311.55 355.45 312.42C356.369 313.762 357.207 315.158 357.96 316.6C357.96 316.6 372.88 342.09 377.62 344.99C382.36 347.89 385.27 377.4 385.27 377.4L369.27 436.71C369.27 436.71 368.52 451.71 367.12 467.01C366.34 475.59 365.35 484.32 364.17 490.6Z" fill="#CED7E7"/>
<path d="M243.66 276.51C243.66 276.51 232.93 282.33 224.55 282.88C223.453 282.931 222.354 282.868 221.27 282.69C212.49 281.36 199.61 274.14 199.61 274.14L214.72 257.57L233.1 266.68L239.86 272.97L243.66 276.51Z" fill="#004276"/>
<path opacity="0.1" d="M329.6 128.2C329.22 128.738 328.788 129.237 328.31 129.69C323.05 134.69 313.71 132.62 306.54 131.46C300.31 130.441 294.223 128.682 288.41 126.22C283.35 124.06 277.28 121.42 272.73 124.52C270.98 125.7 269.78 127.59 267.96 128.63C266.14 129.67 263.82 129.74 261.67 129.77C254.67 129.77 247.67 129.85 240.84 128.27C230.65 125.89 220.11 119.9 210.42 123.85C202.84 126.93 198.73 135.18 196.68 143.11C195.68 147 194.94 151.11 192.68 154.41C190.42 157.71 186.05 160.05 182.33 158.5C176.84 156.21 176.03 146.89 169.41 146.42C162.14 145.91 162.23 153.42 164.35 158.85C167.49 166.85 171.6 174.85 171.78 183.19C163.967 169.196 160.275 153.275 161.131 137.271C161.988 121.266 167.358 105.83 176.62 92.75C178.232 91.7518 179.493 90.277 180.23 88.53C180.304 88.2937 180.364 88.0533 180.41 87.81C180.96 85.02 179.41 82.09 179.32 79.17C178.97 72.04 186.69 67.07 193.77 66.17C198.48 65.57 203.3 66.03 208.02 65.88C210.397 65.8276 212.762 65.5124 215.07 64.94C219.052 63.7468 222.781 61.8316 226.07 59.29C237.418 56.6017 249.197 56.2772 260.675 58.3366C272.153 60.3959 283.085 64.7952 292.79 71.2606C302.496 77.7261 310.767 86.1194 317.089 95.9184C323.411 105.718 327.649 116.713 329.54 128.22L329.6 128.2Z" fill="black"/>
<path d="M331.31 122.31C330.812 124.288 329.773 126.088 328.31 127.51C323.05 132.51 313.71 130.43 306.54 129.27C300.309 128.274 294.222 126.528 288.41 124.07C283.35 121.92 277.28 119.28 272.73 122.38C270.98 123.56 269.78 125.45 267.96 126.49C266.14 127.53 263.82 127.6 261.67 127.62C254.67 127.67 247.67 127.71 240.84 126.13C230.65 123.74 220.11 117.76 210.42 121.7C202.84 124.78 198.73 133.04 196.68 140.97C195.68 144.86 194.94 148.97 192.68 152.26C190.42 155.55 186.05 157.91 182.33 156.36C176.84 154.07 176.03 144.75 169.41 144.28C162.14 143.77 162.23 151.28 164.35 156.71C168.07 166.18 173.13 175.6 171.47 185.64C169.82 185.64 167.09 185.58 165.47 185.54C166.73 183.39 164.33 180.83 161.94 180.1C159.55 179.37 156.76 179.38 154.94 177.64C153.12 175.9 153.11 173.21 153.3 170.8C153.715 165.649 154.975 160.601 157.03 155.86C158.34 152.86 160.03 149.61 159.03 146.47C158.43 145.047 157.707 143.678 156.87 142.38C154.79 138.38 155.28 133.38 157.06 129.25C157.82 127.49 158.37 125.83 159 124.25C159.796 122.004 160.947 119.901 162.41 118.02C164.7 115.17 166.94 110.88 164.41 108.23C163.77 107.56 165.05 107.1 164.64 106.23C164.568 106.081 164.517 105.923 164.49 105.76C164.372 104.707 164.627 103.645 165.21 102.76C165.328 102.53 165.458 102.306 165.6 102.09C165.715 101.861 165.845 101.641 165.99 101.43C168.204 97.7329 171.147 94.5245 174.64 92C176.81 90.43 179.35 88.92 180.21 86.38C181.21 83.38 179.45 80.19 179.3 77.02C178.95 69.89 186.67 64.92 193.75 64.02C200.83 63.12 208.17 64.61 215.07 62.78C224.86 60.2 231.74 51.56 240.63 46.71C245.493 44.1096 250.887 42.655 256.398 42.4575C261.909 42.2599 267.393 43.3245 272.43 45.57C282.81 50.31 290.64 59.89 301.48 63.49C305.32 64.77 309.48 65.28 312.94 67.4C316.94 69.86 319.37 74.16 321.45 78.4C324.62 84.83 325.26 91.29 327.45 98.1C329.19 103.5 331.6 110.56 331.8 116.78C331.912 118.637 331.747 120.501 331.31 122.31Z" fill="#896363"/>
<g opacity="0.1">
<path d="M165.71 109.78C165.87 109.14 165.886 108.472 165.756 107.826C165.626 107.179 165.354 106.569 164.96 106.04C165.22 106.82 164.09 107.27 164.71 107.92C165.204 108.439 165.549 109.082 165.71 109.78Z" fill="black"/>
<path d="M164.93 103.75C164.812 104.099 164.741 104.462 164.72 104.83C164.91 104.51 165.17 104.18 164.93 103.75Z" fill="black"/>
<path d="M328.59 125.07C323.32 130.07 313.99 128 306.8 126.83C300.574 125.828 294.492 124.071 288.69 121.6C283.62 119.44 277.56 116.8 273 119.9C271.26 121.08 270.06 122.97 268.23 124.01C266.4 125.05 264.09 125.12 261.94 125.14C254.94 125.14 247.94 125.23 241.1 123.64C230.92 121.26 220.38 115.29 210.69 119.22C203.11 122.31 199 130.56 196.95 138.49C195.95 142.38 195.22 146.49 192.95 149.79C190.68 153.09 186.31 155.43 182.6 153.89C177.11 151.59 176.3 142.28 169.68 141.81C164.51 141.44 163.07 145.14 163.42 149.25C163.72 146.11 165.42 143.69 169.68 143.99C176.3 144.46 177.11 153.78 182.6 156.07C186.31 157.62 190.69 155.29 192.95 151.97C195.21 148.65 195.95 144.56 196.95 140.68C199 132.75 203.11 124.49 210.69 121.41C220.38 117.47 230.92 123.41 241.1 125.83C247.9 127.42 254.96 127.37 261.94 127.32C264.09 127.32 266.36 127.26 268.23 126.2C270.1 125.14 271.23 123.27 273 122.08C277.56 118.99 283.62 121.63 288.69 123.78C294.493 126.25 300.574 128.009 306.8 129.02C313.99 130.18 323.32 132.27 328.59 127.25C331.45 124.52 332.31 120.57 332.12 116.25C331.96 119.68 330.96 122.79 328.59 125.07Z" fill="black"/>
<path d="M179.65 75.21C179.595 75.708 179.575 76.2092 179.59 76.71C179.69 78.79 180.48 80.87 180.73 82.9C181.1 80.41 179.95 77.81 179.65 75.21Z" fill="black"/>
<path d="M159.33 146.16C159.412 146.459 159.476 146.763 159.52 147.07C159.682 146.038 159.617 144.984 159.33 143.98C158.734 142.552 158.011 141.179 157.17 139.88C156.419 138.401 155.973 136.785 155.86 135.13C155.657 137.519 156.11 139.919 157.17 142.07C158.013 143.365 158.736 144.734 159.33 146.16Z" fill="black"/>
<path d="M171.74 183.14L165.89 183.05C166.026 183.403 166.081 183.783 166.05 184.161C166.019 184.538 165.903 184.904 165.71 185.23C167.36 185.23 170.1 185.29 171.71 185.33C171.99 183.618 172.087 181.882 172 180.15C171.977 181.151 171.89 182.15 171.74 183.14Z" fill="black"/>
<path d="M162.17 177.61C159.78 176.89 157 176.88 155.22 175.13C154.172 173.984 153.581 172.493 153.56 170.94C153.41 173.24 153.56 175.72 155.22 177.32C157 179.07 159.78 179.08 162.17 179.8C162.948 180.026 163.671 180.409 164.295 180.925C164.919 181.441 165.431 182.079 165.8 182.8C166.81 180.73 164.49 178.3 162.17 177.61Z" fill="black"/>
</g>
<path opacity="0.1" d="M344.1 627.19C342.98 626.54 341.84 625.93 340.68 625.35C338.29 624.145 335.84 623.064 333.34 622.11C321.79 617.71 309.42 616.11 296.88 616.38C291.88 618.29 288.63 619.66 288.63 619.66L282.27 621.58L281.21 621.9C281.14 621.2 281.06 620.5 280.99 619.79C280.92 619.08 280.84 618.4 280.76 617.7C278.52 596.49 276.76 574.7 276.76 574.7V555.88V553.69L276.64 498.24L275.64 479.96L275.17 471.87L275.08 470.33L274.9 467.17L274.8 465.29C274.579 464.694 274.392 464.087 274.24 463.47C274.17 463.22 274.1 462.94 274.04 462.65C273.79 461.65 273.52 460.36 273.24 458.96C271.41 449.76 269.12 434.25 268.98 431.1C268.8 426.9 265.16 401.78 265.16 401.78C264.79 387.95 253.16 361.91 250.23 357C247.3 352.09 244.03 322.59 245.13 321C245.7 320.15 246.07 315.12 246.3 310.48C246.3 309.95 246.35 309.43 246.37 308.92C246.52 305.29 246.59 302.26 246.59 302.26L258.03 300L261.1 299.4L261.34 299.35L261.44 299.55C261.77 300.16 262.8 302.11 264.01 304.67C264.15 304.94 264.28 305.23 264.42 305.52C264.48 305.66 264.55 305.8 264.62 305.94C266.86 310.84 269.45 317.29 269.34 321C269.16 327.56 276.63 343.4 276.63 343.4C277.35 347.04 293.19 383.26 293.19 383.26C293.19 383.26 306.12 418.76 305.39 424.59C304.66 430.42 311.58 469.01 311.58 469.01L318.68 508.7C322.13 516.52 326.68 534.54 326.68 534.54L328.41 544.76L328.74 546.71L333.35 573.98L335.61 587.34C335.61 587.34 336.56 594.44 338 602.34C338.12 603.05 338.26 603.77 338.4 604.49C339.287 609.69 340.547 614.82 342.17 619.84C342.975 622.245 343.619 624.7 344.1 627.19Z" fill="black"/>
<path d="M345.34 627.9C344.93 627.66 344.52 627.42 344.1 627.19C342.98 626.54 341.84 625.93 340.68 625.35C338.29 624.145 335.84 623.064 333.34 622.11C321.79 617.71 309.42 616.11 296.88 616.38C291.88 618.29 288.63 619.66 288.63 619.66L282.27 621.58C282.19 620.88 282.12 620.18 282.04 619.47C281.96 618.76 281.9 618.19 281.84 617.55C279.6 596.39 277.84 574.7 277.84 574.7V555.7V553.51L277.72 498.2L276.72 480.74L276.52 477.12L276.38 474.67L276.2 471.43L276.02 468.14L275.89 465.77V465.25C275.89 465.2 275.89 465.14 275.82 465.08C275.63 464.54 275.4 463.72 275.15 462.68L275.03 462.18C274.98 461.95 274.92 461.7 274.87 461.45C272.99 452.92 270.23 434.53 270.08 431.08C269.9 426.88 266.26 401.76 266.26 401.76C265.89 387.93 254.26 361.89 251.33 356.98C248.4 352.07 245.14 322.57 246.23 320.98C246.86 319.98 247.23 313.91 247.47 308.9C247.47 308.5 247.47 308.11 247.47 307.74C247.6 304.65 247.65 302.24 247.65 302.24L258.29 300.14L260.99 299.61L261.41 299.53L262.41 299.33C262.41 299.33 263.72 301.75 265.29 305.08L265.49 305.5C267.78 310.44 270.49 317.16 270.41 320.98C270.23 327.54 277.7 343.38 277.7 343.38C278.42 347.02 294.26 383.24 294.26 383.24C294.26 383.24 307.19 418.74 306.46 424.57C305.73 430.4 312.65 468.99 312.65 468.99L319.75 508.68C323.2 516.5 327.75 534.52 327.75 534.52L329.36 544.04L329.69 545.97L333.32 567.49L336.67 587.32C336.67 587.32 337.67 594.39 339.05 602.32C339.18 603.04 339.31 603.76 339.45 604.49C340.336 609.714 341.596 614.867 343.22 619.91C344.107 622.522 344.815 625.192 345.34 627.9Z" fill="#004276"/>
<path d="M336.32 114.31C336.32 114.31 332.5 119.23 329.05 119.23C325.6 119.23 312.17 118.68 305.17 116.5C298.17 114.32 263.85 112.67 263.85 112.67C263.85 112.67 215.25 112.85 213.61 111.21C211.97 109.57 183.39 100.83 180.48 101.38C179.87 101.5 178.38 101.76 176.39 102.09L174.11 102.46C170.66 103.01 166.35 103.65 162.41 104.12C157.54 104.69 153.26 104.98 151.9 104.48V100.29C151.9 100.29 157.54 92.09 157.9 89.74C158.26 87.39 163 53.32 175.38 41.13C180.494 31.3531 188.771 23.598 198.86 19.13C215.61 11.84 232.36 5.66 232.36 5.66L235.29 5.24L244.74 3.84C245.027 3.55404 245.338 3.29309 245.67 3.06C248.29 1.06 256.23 -3.29 266.58 6.06L268.41 8.98001C268.41 8.98001 300.26 16.44 315 42.47C329.74 68.5 330.48 93.99 331.57 105.64C331.57 105.64 330.84 108.92 332.3 110.19C332.829 110.657 333.333 111.151 333.81 111.67C333.94 111.8 334.07 111.93 334.19 112.07C334.61 112.49 335 112.93 335.32 113.29C335.358 113.318 335.392 113.352 335.42 113.39C335.498 113.485 335.582 113.575 335.67 113.66L336.32 114.31Z" fill="#FED253"/>
<path opacity="0.05" d="M336.32 114.31C336.32 114.31 332.5 119.23 329.05 119.23C325.6 119.23 312.17 118.68 305.17 116.5C298.17 114.32 263.85 112.67 263.85 112.67C263.85 112.67 215.25 112.85 213.61 111.21C211.97 109.57 183.39 100.83 180.48 101.38C179.87 101.5 178.38 101.76 176.39 102.09L175.87 98.89L175.74 98.1C175.74 98.1 230.9 86.27 267.67 92.47C304.44 98.67 331.57 105.57 331.57 105.57C331.57 105.57 330.84 108.85 332.3 110.12C332.829 110.587 333.333 111.081 333.81 111.6C333.94 111.73 334.07 111.86 334.19 112C334.61 112.42 335 112.86 335.32 113.22C335.358 113.248 335.392 113.282 335.42 113.32C335.498 113.415 335.582 113.505 335.67 113.59L336.32 114.31Z" fill="black"/>
<path opacity="0.1" d="M331.31 122.31C324.5 122.84 311.95 121.18 306.46 120.37C304.9 120.14 303.37 119.86 301.83 119.52C295.94 118.24 277.83 114.65 266.83 116.31C253.54 118.31 216.04 114.67 216.04 114.67C216.04 114.67 192.92 109.94 183.63 106.12C180.22 104.71 174.52 104.27 168.85 104.97C167.404 105.15 165.969 105.407 164.55 105.74C156.81 107.57 150.28 111.74 151.41 118.85C150.977 118.331 150.577 117.787 150.21 117.22C149.72 110.72 151.74 106.85 154.54 104.57L155.2 104.3C158.62 103.328 162.101 102.583 165.62 102.07C166.17 101.98 166.74 101.9 167.32 101.83C177.27 100.49 191.66 100.19 203.8 106.3C203.8 106.3 215.08 111.59 222.73 111.59C230.38 111.59 292.63 112.14 307.2 116.32C310.101 117.158 313.058 117.783 316.05 118.19C321.362 118.875 326.76 118.366 331.85 116.7C331.954 118.587 331.772 120.478 331.31 122.31Z" fill="black"/>
<path opacity="0.1" d="M336.32 114.31C336.32 114.31 332.5 119.23 329.05 119.23C325.6 119.23 312.17 118.68 305.17 116.5C298.17 114.32 263.85 112.67 263.85 112.67C263.85 112.67 215.25 112.85 213.61 111.21C211.97 109.57 183.39 100.83 180.48 101.38C179.87 101.5 178.38 101.76 176.39 102.09L174.11 102.46C170.15 102.44 166.208 102.999 162.41 104.12C157.54 104.69 153.26 104.98 151.9 104.48V103.65C152.949 103.042 154.042 102.513 155.17 102.07C161.918 100.18 168.867 99.0995 175.87 98.85C184.6 98.53 194.81 99.55 203.78 104.07C203.78 104.07 215.06 109.36 222.71 109.36C230.36 109.36 292.61 109.9 307.18 114.09C310.082 114.92 313.039 115.542 316.03 115.95C322.592 116.777 329.256 115.82 335.32 113.18C335.358 113.208 335.392 113.242 335.42 113.28C335.498 113.375 335.582 113.465 335.67 113.55L336.32 114.31Z" fill="black"/>
<path d="M151.55 118.68C151.55 118.68 139.35 109.39 155.19 103.2C155.19 103.2 182.86 94.65 203.8 105.2C203.8 105.2 215.08 110.47 222.73 110.47C230.38 110.47 292.63 111.02 307.2 115.21C310.102 116.041 313.059 116.663 316.05 117.07C323.802 118.01 331.654 116.518 338.52 112.8C339.52 112.25 340.42 111.97 340.69 112.29C341.6 113.39 340.88 119.76 332.87 121.03C326.62 122.03 312.42 120.14 306.45 119.27C304.9 119.04 303.36 118.75 301.83 118.42C295.94 117.14 277.83 113.55 266.78 115.21C253.5 117.21 215.99 113.57 215.99 113.57C215.99 113.57 192.88 108.84 183.59 105.01C174.3 101.18 148.09 104.48 151.55 118.68Z" fill="#FED253"/>
<path opacity="0.1" d="M254.4 21.07C253.4 19.63 240.55 9.34 235.31 5.18L244.76 3.78C245.047 3.49404 245.358 3.23309 245.69 3C252.56 10.21 254.4 21.07 254.4 21.07Z" fill="black"/>
<path opacity="0.1" d="M212.72 76.26L208.53 82.45L224.55 81.91L224.91 74.99L212.72 76.26Z" fill="black"/>
<path opacity="0.1" d="M310.47 83.73L312.29 89.37L322.49 91.01L318.12 84.27L310.47 83.73Z" fill="black"/>
<path opacity="0.1" d="M135.35 273.07C136.44 274.89 172.3 322.07 181.77 320.76C191.24 319.45 135.35 273.07 135.35 273.07Z" fill="black"/>
<path opacity="0.1" d="M255.5 316.19C255.5 316.19 264.24 324.57 262.96 327.84C261.68 331.11 255.5 316.19 255.5 316.19Z" fill="black"/>
<path opacity="0.1" d="M160.11 373.72C160.11 373.72 152.46 409.58 156.47 410.72C160.48 411.86 160.11 373.72 160.11 373.72Z" fill="black"/>
<path opacity="0.1" d="M258.41 512.98C259.68 516.62 270.24 540.29 272.61 541.56C274.98 542.83 258.41 512.98 258.41 512.98Z" fill="black"/>
<path opacity="0.1" d="M381.11 415.77C380.74 417.04 371.64 424.51 373.64 427.24C375.64 429.97 381.11 415.77 381.11 415.77Z" fill="black"/>
<path opacity="0.1" d="M310.47 482.21C310.29 483.13 308.47 502.21 311.93 505.88C315.39 509.55 310.47 482.21 310.47 482.21Z" fill="black"/>
<path opacity="0.1" d="M403.75 581.33C401.11 582.8 398.38 584.22 395.6 585.58C392.6 587.04 389.6 588.43 386.54 589.74C385.32 590.27 384.1 590.79 382.89 591.29C381.05 592.05 379.23 592.78 377.43 593.48C371.96 595.62 366.69 597.48 362 599.05C360.18 599.66 358.44 600.22 356.82 600.74C348.66 603.33 343.24 604.74 343.24 604.74C342.002 604.475 340.735 604.371 339.47 604.43C339.12 604.43 338.76 604.43 338.39 604.43C336.696 604.553 335.011 604.766 333.34 605.07C322.17 607.07 306.39 612.68 296.88 616.35C291.88 618.26 288.63 619.63 288.63 619.63L282.27 621.55L281.21 621.87C274.32 623.97 264.63 626.95 261.14 628.19C255.5 630.19 206.53 640.38 206.53 640.38C202.056 641.601 197.486 642.437 192.87 642.88C181.495 643.924 170.061 644.184 158.65 643.66C147.19 644.4 128.65 641.88 117.86 640.18L116.14 639.91C111.97 639.23 109.32 638.74 109.32 638.74L110.72 636.81L139.43 597.2L139.6 596.96L166.35 560.07L167.35 558.73L169.78 555.38C169.78 555.38 171.24 553.38 176.86 553.25C177.52 553.25 178.24 553.25 179.03 553.25C183.751 553.629 188.408 554.58 192.9 556.08L194.2 556.47C213.57 562.02 243.51 560.63 243.51 560.63C243.51 560.63 262.14 557.63 276.78 555.83L277.87 555.69C282.654 555.014 287.471 554.597 292.3 554.44C301.22 554.62 320.52 549.89 320.52 549.89C324.67 549 326.42 548.25 328.76 546.58C329.07 546.36 329.4 546.12 329.76 545.86C330.76 545.11 331.91 544.19 333.39 543.05C336.09 540.98 339.88 538.17 345.84 534.23C346.36 533.89 346.91 533.55 347.5 533.23C348.09 532.91 348.84 532.48 349.56 532.12C355.332 529.386 361.417 527.371 367.68 526.12C372.875 525.003 378.146 524.278 383.45 523.95H384.24C399.24 523.15 414.56 525.72 423.52 534.15C425.087 535.631 426.452 537.312 427.58 539.15C428.128 540.023 428.615 540.931 429.04 541.87C429.857 543.66 430.465 545.54 430.85 547.47C430.923 547.83 430.983 548.19 431.03 548.55C431.03 548.66 431.03 548.76 431.03 548.87C431.03 549.16 431.09 549.45 431.11 549.74C431.91 561.71 419.49 572.53 403.75 581.33Z" fill="black"/>
<path d="M109.32 636.59C109.32 636.59 141.72 642.59 158.65 641.5C158.65 641.5 189.78 643.14 206.53 638.23C206.53 638.23 255.53 628.03 261.14 626.03C266.75 624.03 288.63 617.47 288.63 617.47C288.63 617.47 331.23 599.63 343.24 602.54C343.24 602.54 437.54 578.15 430.8 545.2C424.06 512.25 364.54 519.72 345.8 532.09C327.06 544.46 329.8 545.75 320.5 547.75C320.5 547.75 301.2 552.48 292.28 552.3C283.36 552.12 243.49 558.49 243.49 558.49C243.49 558.49 212.18 559.95 192.89 553.94C173.6 547.93 169.77 553.21 169.77 553.21L109.32 636.59Z" fill="#FFA2A2"/>
<path opacity="0.1" d="M179.58 551.07C179.585 551.11 179.585 551.15 179.58 551.19C179.51 551.933 179.318 552.66 179.01 553.34C175.17 562.76 153.37 588.17 153.37 588.17C152.376 591.189 151.177 594.135 149.78 596.99C146.776 603.092 143.316 608.959 139.43 614.54C133.669 622.89 127.38 630.863 120.6 638.41H120.55C119.687 639.05 118.789 639.641 117.86 640.18C115.51 641.58 111.98 643.31 108.65 643.52C108.083 643.554 107.514 643.537 106.95 643.47C107.3 643.47 107.64 643.39 107.95 643.33L106.73 642.97L105.06 642.45C102.26 641.57 99.4833 640.607 96.73 639.56L95.06 638.92C92.3933 637.893 89.7833 636.79 87.23 635.61L85.56 634.85C82.8933 633.61 80.2833 632.3 77.73 630.92C76.81 630.44 75.9 629.92 75 629.43C72.28 627.91 69.6133 626.317 67 624.65C64.2267 622.883 61.5133 621.04 58.86 619.12C56.86 615.41 55.21 612.12 54.31 610.35C52.67 607.06 52.53 602.35 52.73 598.94C52.73 598.59 52.73 598.26 52.79 597.94C52.96 595.8 53.22 594.33 53.22 594.33C51.7382 592.349 50.4014 590.264 49.22 588.09C48.5413 587.011 48.1552 585.774 48.1 584.5C48.1452 583.989 48.0978 583.474 47.96 582.98C47.19 579.82 43.88 574.39 40.82 570.98C38.54 568.47 38.4 559.09 38.62 552.44C38.75 548.44 39 545.5 39 545.5C38.5519 545.211 38.2166 544.777 38.05 544.27C37.2459 542.081 36.7022 539.806 36.43 537.49C36.43 537.16 36.34 536.83 36.29 536.49C35.65 531.9 35.36 527.29 35.36 527.29C27.96 521.9 24.44 513.49 22.8 505.99L22.59 504.99C21.6893 500.38 21.307 495.685 21.45 490.99C21.45 490.54 21.45 490.2 21.45 489.99C21.45 489.78 21.45 489.74 21.45 489.74C21.45 489.74 22.43 468.07 25.17 459.61C25.28 459.25 25.4 458.92 25.52 458.61C25.7219 458.079 25.9836 457.572 26.3 457.1C27.3 455.77 28.01 453.26 28.6 450.29C29.01 448.23 29.35 445.94 29.6 443.66C29.83 441.76 30.01 439.87 30.15 438.12C30.54 433.44 30.66 429.79 30.66 429.79L28.81 420.67C28.3 418.18 27.91 415.67 27.64 413.16C27.64 412.83 27.56 412.5 27.52 412.16C27.0523 407.525 26.9687 402.859 27.27 398.21C27.27 397.87 27.27 397.54 27.33 397.21C28.1108 386.621 30.8791 376.274 35.49 366.71L35.99 365.71C36.6567 364.377 37.3567 363.067 38.09 361.78C38.62 360.83 39.18 359.89 39.76 358.96C41.2976 356.47 42.9666 354.063 44.76 351.75C45.02 351.41 45.29 351.08 45.56 350.75C48.6804 346.881 52.1482 343.307 55.92 340.07C66.02 331.39 75.29 327.62 83.71 327.33C120.53 326.03 141.18 391.15 144.52 402.56C144.84 403.66 145 404.26 145 404.26C145 404.26 159.92 419.19 155.55 425.74C154.703 427.182 154.187 428.794 154.04 430.46C152.84 439.27 156.28 453.78 156.28 453.78C156.28 453.78 157.5 457.78 161.06 467.36L162.11 470.16C164.34 476.16 164.86 486.23 163.58 495.25C162.35 503.89 159.46 511.53 154.83 513.49C145.36 517.49 147.91 521.49 150.09 524.78C151.385 527.138 152.466 529.608 153.32 532.16C154.69 535.85 155.96 539.73 156.44 541.24C156.58 541.66 156.65 541.89 156.65 541.89C157.976 541.377 159.354 541.008 160.76 540.79C162.55 540.54 164.32 540.72 164.66 542.25C164.84 543.07 165.87 544.04 167.32 545.01C171.62 547.97 179.58 551.07 179.58 551.07Z" fill="black"/>
<path d="M177.4 551.07C177.339 551.831 177.146 552.575 176.83 553.27C173.01 562.7 151.19 588.17 151.19 588.17C150.192 591.187 148.992 594.134 147.6 596.99C145.187 601.918 142.458 606.684 139.43 611.26C133.161 620.716 126.216 629.706 118.65 638.16L118.42 638.41C118.42 638.41 117.54 639.08 116.14 639.94C113.638 641.537 110.882 642.693 107.99 643.36L106.77 643L105.1 642.48C102.3 641.6 99.5233 640.637 96.77 639.59L95.1 638.95C92.4333 637.923 89.8233 636.82 87.27 635.64L85.6 634.88C82.9333 633.64 80.3233 632.33 77.77 630.95C76.85 630.47 75.94 629.95 75.04 629.46C72.32 627.94 69.6533 626.347 67.04 624.68C64.2666 622.913 61.5533 621.07 58.9 619.15C57.6733 618.27 56.46 617.367 55.26 616.44C53.91 613.88 52.83 611.72 52.16 610.38C50.52 607.09 50.38 602.38 50.58 598.97C50.58 598.62 50.58 598.29 50.64 597.97C50.81 595.83 51.07 594.36 51.07 594.36C51.07 594.36 50.26 593.27 49.28 591.79C48.73 590.97 48.14 590.02 47.61 589.08C46.61 587.32 45.83 585.54 45.98 584.53C46.0003 584.357 46.0003 584.183 45.98 584.01C45.965 583.672 45.9147 583.337 45.83 583.01C45.06 579.85 41.74 574.42 38.68 571.01C36.4 568.5 36.26 559.12 36.47 552.47C36.47 552.13 36.47 551.8 36.47 551.47C36.61 548.02 36.82 545.53 36.82 545.53C35.69 545.04 34.82 541.41 34.26 537.53L34.11 536.53C33.47 531.94 33.18 527.33 33.18 527.33C25.78 521.94 22.26 513.53 20.63 506.03C19.4944 500.777 19.0573 495.397 19.33 490.03C19.33 489.87 19.33 489.78 19.33 489.78C19.33 489.78 20.19 468 22.93 459.53C23.04 459.17 23.16 458.84 23.28 458.53C23.5199 458.011 23.8186 457.521 24.17 457.07C25.69 454.95 26.7 449.85 27.36 444.63L27.48 443.63C28.31 436.63 28.54 429.76 28.54 429.76L26.68 420.64C26.1733 418.14 25.7833 415.637 25.51 413.13C25.46 412.8 25.43 412.46 25.39 412.13C24.9224 407.495 24.8388 402.829 25.14 398.18C25.14 397.84 25.14 397.51 25.21 397.18C25.9861 386.59 28.7545 376.242 33.37 366.68C33.53 366.34 33.69 366.01 33.87 365.68C35.1557 363.083 36.5846 360.559 38.15 358.12C38.69 357.27 39.24 356.43 39.82 355.6C40.73 354.28 41.68 352.98 42.67 351.72L43.47 350.72C46.5637 346.866 50.0011 343.302 53.74 340.07C64.74 330.64 74.74 327 83.74 327.33C119.19 328.6 139.09 391.38 142.36 402.56C142.68 403.66 142.84 404.26 142.84 404.26C142.84 404.26 157.77 419.19 153.4 425.74C152.553 427.182 152.037 428.794 151.89 430.46C150.68 439.27 154.13 453.78 154.13 453.78C154.13 453.78 155.35 457.78 158.91 467.36C159.23 468.25 159.58 469.18 159.91 470.16C162.14 476.16 162.66 486.23 161.38 495.25C160.15 503.9 157.27 511.53 152.63 513.49C143.17 517.49 145.71 521.49 147.9 524.78C149.195 527.138 150.276 529.608 151.13 532.16C152.86 536.87 154.45 541.89 154.45 541.89C155.104 541.637 155.772 541.42 156.45 541.24C157.841 540.783 159.314 540.629 160.77 540.79C161.173 540.821 161.555 540.979 161.863 541.242C162.17 541.504 162.386 541.857 162.48 542.25C162.75 543.45 164.82 544.94 167.33 546.35C170.589 548.124 173.952 549.7 177.4 551.07Z" fill="#CED7E7"/>
<path opacity="0.1" d="M45.78 454.91C49.24 454.73 86.38 440.35 94.03 445.26C101.68 450.17 149.03 482.03 149.03 482.03C149.03 482.03 119.36 443.26 93.51 434.16C67.66 425.06 45.78 454.91 45.78 454.91Z" fill="black"/>
<path opacity="0.1" d="M99.17 513.53C99.17 513.53 136.31 520.99 141.95 526.09L99.17 513.53Z" fill="black"/>
<path opacity="0.1" d="M92.02 569.07C91.48 569.62 78.02 599.83 79.1 599.83C80.18 599.83 91.66 581.83 91.66 581.83L92.02 569.07Z" fill="black"/>
<path opacity="0.1" d="M117.33 532.82C117.33 532.82 106.41 536.65 107.68 537.01C108.95 537.37 116.96 534.46 117.33 532.82Z" fill="black"/>
<path opacity="0.1" d="M106.41 578.52C108.23 582.34 114.05 593.81 115.33 591.99C116.61 590.17 106.41 578.52 106.41 578.52Z" fill="black"/>
<path opacity="0.1" d="M242.73 275.74L241.17 277.96C241.17 277.96 228.78 269.23 223.69 264.86C218.6 260.49 206.58 280.51 197.11 285.97C187.64 291.43 171.63 292.89 171.63 292.89C171.63 292.89 159.25 280.51 159.63 276.89C160.01 273.27 153.81 272.16 153.44 269.61C153.07 267.06 150.89 259.78 147.98 256.14C146.44 254.22 146.22 248.21 146.36 242.98C147.36 242.78 147.98 242.67 147.98 242.67C149.534 239.846 151.499 237.268 153.81 235.02C157.09 232.11 162.18 214.27 162.18 214.27C165.09 204.44 170.91 207.35 170.91 207.35C170.91 222.28 186.21 227.74 193.85 233.93C201.49 240.12 213.51 256.14 222.98 259.42C230.75 262.07 239.84 272.32 242.73 275.74Z" fill="black"/>
<path d="M242.73 273.55L241.17 275.78C241.17 275.78 228.73 267.07 223.64 262.67C218.55 258.27 206.53 278.32 197.06 283.78C187.59 289.24 171.58 290.71 171.58 290.71C171.58 290.71 159.2 278.32 159.58 274.71C159.96 271.1 153.76 269.98 153.39 267.42C153.02 264.86 150.84 257.59 147.93 253.95C146.39 252.03 146.17 246.02 146.31 240.79L147.93 240.49C149.484 237.666 151.449 235.088 153.76 232.84C157.04 229.92 162.13 212.09 162.13 212.09C165.04 202.26 170.86 205.16 170.86 205.16C170.86 220.09 186.16 225.56 193.8 231.75C201.44 237.94 213.46 253.95 222.93 257.23C230.75 259.92 239.84 270.13 242.73 273.55Z" fill="#CED7E7"/>
<path opacity="0.1" d="M243.66 276.51C243.66 276.51 232.93 282.33 224.55 282.88C223.453 282.931 222.354 282.868 221.27 282.69C221.27 282.69 230.52 275.78 239.11 274.37L243.66 276.51Z" fill="black"/>
<path opacity="0.1" d="M265.51 306.18C265.51 306.18 251.98 300.91 247.51 308.84C247.66 305.2 247.72 302.18 247.72 302.18L262.47 299.26C262.47 299.26 263.89 301.89 265.55 305.43C265.51 305.9 265.51 306.18 265.51 306.18Z" fill="black"/>
<path d="M221.27 282.69C221.27 282.69 237.48 272.96 245.27 273.78C253.44 274.63 269.27 275.23 269.27 275.23C269.27 275.23 263.81 287.61 264.54 290.16C265.27 292.71 265.45 305.09 265.45 305.09C265.45 305.09 249.07 298.72 246.34 310.55C246.34 310.55 237.42 297.26 231.41 293.25C227.422 290.369 223.987 286.791 221.27 282.69Z" fill="#004276"/>
<path opacity="0.1" d="M312.84 293.99C308.11 293.99 291.36 283.42 287.72 276.51C284.08 269.6 278.98 277.23 274.25 279.79C271.25 281.43 259.36 278 252.95 275.51C256.2 273.3 263.4 267.08 265.51 265.59C268.05 263.76 270.61 234.27 270.61 234.27C279.71 229.54 289.54 272.5 289.54 272.5C289.54 272.5 306.66 277.6 308.11 281.24C308.39 281.96 309.68 283.24 311.62 284.79C313.62 289.83 314.72 293.99 312.84 293.99Z" fill="black"/>
<path d="M312.84 291.8C308.11 291.8 291.36 281.24 287.72 274.33C284.08 267.42 278.98 275.05 274.25 277.6C271.25 279.24 261.72 276.07 255.31 273.6C258.56 271.4 263.4 264.92 265.51 263.42C268.05 261.6 270.61 232.11 270.61 232.11C279.71 227.38 289.54 270.34 289.54 270.34C289.54 270.34 306.66 275.44 308.11 279.08C308.39 279.8 309.68 281.08 311.62 282.63C313.62 287.64 314.72 291.8 312.84 291.8Z" fill="#CED7E7"/>
<path d="M377.53 610.77L535.84 478.77C537.42 477.436 539.433 476.724 541.5 476.77L600.56 478.32C600.56 478.32 604.65 481.32 598.65 487.88L449.31 610.43C447.696 611.749 445.693 612.501 443.61 612.57L379.03 614.71C378.566 614.725 378.11 614.594 377.723 614.337C377.337 614.079 377.041 613.708 376.876 613.275C376.711 612.841 376.685 612.367 376.802 611.918C376.92 611.469 377.174 611.068 377.53 610.77Z" fill="#004276"/>
<path d="M454.11 594.53C454.11 594.53 488.69 644.05 527.11 597.99C565.53 551.93 554.42 527.73 542.77 526.45C531.12 525.17 465.57 575.6 454.11 594.53Z" fill="#FFA2A2"/>
</svg>
