<svg width="16" height="15" viewBox="0 0 16 15" fill="none" xmlns="http://www.w3.org/2000/svg">
<path d="M15.4187 0.746093C15.3407 0.52344 15.1063 0.375 14.794 0.375H1.206C0.893623 0.375 0.659351 0.52344 0.581257 0.746093C0.425071 0.968752 0.503164 1.26562 0.737444 1.48828L5.9696 6.46095V11.3594C5.9696 11.5078 6.04769 11.7305 6.20388 11.8047L8.93711 14.4024C9.09328 14.5508 9.24945 14.625 9.40562 14.625C9.48371 14.625 9.56187 14.625 9.63995 14.5508C9.87421 14.4766 10.0304 14.2539 10.0304 13.957V6.46095L15.2626 1.48828C15.4968 1.33984 15.5749 1.04297 15.4187 0.746093ZM8.62476 5.94141V12.3242L7.37524 11.1367V5.94141L2.92402 1.71094H12.9979L8.62476 5.94141Z" fill="#A62A22"/>
</svg>
