<svg width="56" height="57" viewBox="0 0 56 57" fill="none" xmlns="http://www.w3.org/2000/svg">
<path opacity="0.5" d="M4.6665 37.832C4.6665 31.2334 4.6665 27.9317 6.7175 25.883C8.76617 23.832 12.0678 23.832 18.6665 23.832H37.3332C43.9318 23.832 47.2335 23.832 49.2822 25.883C51.3332 27.9317 51.3332 31.2334 51.3332 37.832C51.3332 44.4307 51.3332 47.7324 49.2822 49.781C47.2335 51.832 43.9318 51.832 37.3332 51.832H18.6665C12.0678 51.832 8.76617 51.832 6.7175 49.781C4.6665 47.7324 4.6665 44.4307 4.6665 37.832Z" fill="#FDB913"/>
<path d="M28 42.5013C29.2377 42.5013 30.4247 42.0096 31.2998 41.1345C32.175 40.2593 32.6667 39.0723 32.6667 37.8346C32.6667 36.597 32.175 35.41 31.2998 34.5348C30.4247 33.6596 29.2377 33.168 28 33.168C26.7623 33.168 25.5753 33.6596 24.7002 34.5348C23.825 35.41 23.3333 36.597 23.3333 37.8346C23.3333 39.0723 23.825 40.2593 24.7002 41.1345C25.5753 42.0096 26.7623 42.5013 28 42.5013ZM15.75 19.168C15.75 15.9191 17.0406 12.8032 19.3379 10.5059C21.6353 8.20859 24.7511 6.91797 28 6.91797C31.2489 6.91797 34.3647 8.20859 36.6621 10.5059C38.9594 12.8032 40.25 15.9191 40.25 19.168V23.844C41.573 23.8556 42.7327 23.886 43.75 23.9606V19.168C43.75 14.9908 42.0906 10.9847 39.1369 8.03104C36.1832 5.07734 32.1772 3.41797 28 3.41797C23.8228 3.41797 19.8168 5.07734 16.8631 8.03104C13.9094 10.9847 12.25 14.9908 12.25 19.168V23.963C13.4151 23.8862 14.5824 23.8465 15.75 23.844V19.168Z" fill="#004275"/>
</svg>
