<svg width="71" height="73" viewBox="0 0 71 73" fill="none" xmlns="http://www.w3.org/2000/svg">
<g id="Frame 427319161">
<g id="Mask Group 2">
<path id="Ellipse 652" d="M38 66C56.2254 66 71 51.2254 71 33C71 14.7746 56.2254 0 38 0C19.7746 0 5 14.7746 5 33C5 51.2254 19.7746 66 38 66Z" fill="#F87171"/>
<g id="Group" filter="url(#filter0_d_594_33669)">
<g id="Mask Group">
<path id="Rectangle 5615" d="M56.92 18.918H19.08C17.865 18.918 16.88 19.9029 16.88 21.118V67.318C16.88 68.533 17.865 69.518 19.08 69.518H56.92C58.135 69.518 59.12 68.533 59.12 67.318V21.118C59.12 19.9029 58.135 18.918 56.92 18.918Z" fill="#B91C1C"/>
</g>
</g>
<path id="Rectangle 5617" d="M34.04 23.3203H22.6C21.871 23.3203 21.28 23.9113 21.28 24.6403C21.28 25.3693 21.871 25.9603 22.6 25.9603H34.04C34.769 25.9603 35.36 25.3693 35.36 24.6403C35.36 23.9113 34.769 23.3203 34.04 23.3203Z" fill="#E1EBFA"/>
<path id="Rectangle 5620" d="M34.04 41.8008H22.6C21.871 41.8008 21.28 42.3918 21.28 43.1208C21.28 43.8498 21.871 44.4408 22.6 44.4408H34.04C34.769 44.4408 35.36 43.8498 35.36 43.1208C35.36 42.3918 34.769 41.8008 34.04 41.8008Z" fill="#E1EBFA"/>
<g id="Rectangle 5618">
<path id="Vector" d="M52.52 29.9219H23.48C22.5079 29.9219 21.72 30.7099 21.72 31.6819V36.0819C21.72 37.0539 22.5079 37.8419 23.48 37.8419H52.52C53.492 37.8419 54.28 37.0539 54.28 36.0819V31.6819C54.28 30.7099 53.492 29.9219 52.52 29.9219Z" stroke="#F87171" stroke-width="2"/>
</g>
<path id="Rectangle 5619" d="M52.52 47.9609H23.48C22.265 47.9609 21.28 48.9459 21.28 50.1609V53.6809C21.28 54.896 22.265 55.8809 23.48 55.8809H52.52C53.7351 55.8809 54.72 54.896 54.72 53.6809V50.1609C54.72 48.9459 53.7351 47.9609 52.52 47.9609Z" fill="#FEF2F2"/>
<g id="Group 26782">
<path id="Ellipse 658" d="M42.84 38.7203C44.055 38.7203 45.04 37.7353 45.04 36.5203C45.04 35.3053 44.055 34.3203 42.84 34.3203C41.625 34.3203 40.64 35.3053 40.64 36.5203C40.64 37.7353 41.625 38.7203 42.84 38.7203Z" fill="#DFEAFB"/>
<path id="Path 25916" d="M44.5591 45.9242C44.2071 45.9242 43.8784 45.9242 43.5792 45.9053C43.2106 45.8804 42.8561 45.7543 42.5546 45.5409C42.2531 45.3275 42.0163 45.035 41.8702 44.6957L40.0139 41.027C39.8777 40.8685 39.8097 40.6626 39.8247 40.4541C39.8397 40.2457 39.9365 40.0517 40.094 39.9143C40.2229 39.8106 40.3839 39.7548 40.5494 39.7563C40.6712 39.7598 40.7908 39.7898 40.9 39.844C41.0091 39.8982 41.1052 39.9755 41.1816 40.0705L42.0247 41.2211L42.0374 41.236V36.8646C42.0374 36.6477 42.1236 36.4397 42.2769 36.2864C42.4303 36.133 42.6383 36.0469 42.8552 36.0469C43.0721 36.0469 43.28 36.133 43.4334 36.2864C43.5868 36.4397 43.6729 36.6477 43.6729 36.8646V39.7246C43.6634 39.6194 43.6759 39.5133 43.7097 39.4132C43.7435 39.313 43.7977 39.221 43.869 39.143C43.9403 39.065 44.027 39.0027 44.1237 38.9601C44.2204 38.9175 44.3249 38.8955 44.4306 38.8955C44.5363 38.8955 44.6408 38.9175 44.7375 38.9601C44.8342 39.0027 44.9209 39.065 44.9922 39.143C45.0635 39.221 45.1177 39.313 45.1515 39.4132C45.1852 39.5133 45.1978 39.6194 45.1883 39.7246V40.3208C45.1788 40.2156 45.1913 40.1095 45.2251 40.0094C45.2588 39.9092 45.3131 39.8172 45.3844 39.7392C45.4556 39.6612 45.5424 39.5989 45.6391 39.5563C45.7358 39.5137 45.8403 39.4917 45.946 39.4917C46.0516 39.4917 46.1561 39.5137 46.2528 39.5563C46.3495 39.5989 46.4363 39.6612 46.5076 39.7392C46.5788 39.8172 46.6331 39.9092 46.6668 40.0094C46.7006 40.1095 46.7131 40.2156 46.7036 40.3208V40.7802C46.6941 40.6749 46.7067 40.5689 46.7404 40.4687C46.7742 40.3686 46.8284 40.2766 46.8997 40.1986C46.971 40.1206 47.0578 40.0583 47.1544 40.0157C47.2511 39.973 47.3556 39.951 47.4613 39.951C47.567 39.951 47.6715 39.973 47.7682 40.0157C47.8649 40.0583 47.9516 40.1206 48.0229 40.1986C48.0942 40.2766 48.1484 40.3686 48.1822 40.4687C48.216 40.5689 48.2285 40.6749 48.219 40.7802V43.5685C48.204 44.426 47.8164 45.8719 46.4528 45.8719C46.3538 45.8763 45.5152 45.9247 44.5608 45.9247L44.5591 45.9242Z" fill="#B91C1C" stroke="white"/>
</g>
</g>
<g id="Group 26779">
<g id="Group_2" filter="url(#filter1_d_594_33669)">
<path id="Rectangle 5616" d="M35.828 51.6055H8.36353C7.48165 51.6055 6.76675 52.3204 6.76675 53.2022V62.7829C6.76675 63.6648 7.48165 64.3797 8.36353 64.3797H35.828C36.7099 64.3797 37.4248 63.6648 37.4248 62.7829V53.2022C37.4248 52.3204 36.7099 51.6055 35.828 51.6055Z" fill="#F87171"/>
</g>
<g id="Group 26775">
<path id="Rectangle 5617_2" d="M18.9023 55.1172H10.599C10.0699 55.1172 9.64096 55.5461 9.64096 56.0753C9.64096 56.6044 10.0699 57.0333 10.599 57.0333H18.9023C19.4314 57.0333 19.8603 56.6044 19.8603 56.0753C19.8603 55.5461 19.4314 55.1172 18.9023 55.1172Z" fill="#FECACA"/>
<path id="Rectangle 5618_2" d="M24.6506 59.2695H10.599C10.0699 59.2695 9.64096 59.6985 9.64096 60.2276C9.64096 60.7567 10.0699 61.1857 10.599 61.1857H24.6506C25.1798 61.1857 25.6087 60.7567 25.6087 60.2276C25.6087 59.6985 25.1798 59.2695 24.6506 59.2695Z" fill="white"/>
</g>
</g>
</g>
<defs>
<filter id="filter0_d_594_33669" x="10.88" y="9.91797" width="54.24" height="62.6016" filterUnits="userSpaceOnUse" color-interpolation-filters="sRGB">
<feFlood flood-opacity="0" result="BackgroundImageFix"/>
<feColorMatrix in="SourceAlpha" type="matrix" values="0 0 0 0 0 0 0 0 0 0 0 0 0 0 0 0 0 0 127 0" result="hardAlpha"/>
<feOffset dy="-3"/>
<feGaussianBlur stdDeviation="3"/>
<feColorMatrix type="matrix" values="0 0 0 0 0.788235 0 0 0 0 0.803922 0 0 0 0 0.85098 0 0 0 0.349 0"/>
<feBlend mode="normal" in2="BackgroundImageFix" result="effect1_dropShadow_594_33669"/>
<feBlend mode="normal" in="SourceGraphic" in2="effect1_dropShadow_594_33669" result="shape"/>
</filter>
<filter id="filter1_d_594_33669" x="0.766754" y="42.6055" width="42.6581" height="24.7734" filterUnits="userSpaceOnUse" color-interpolation-filters="sRGB">
<feFlood flood-opacity="0" result="BackgroundImageFix"/>
<feColorMatrix in="SourceAlpha" type="matrix" values="0 0 0 0 0 0 0 0 0 0 0 0 0 0 0 0 0 0 127 0" result="hardAlpha"/>
<feOffset dy="-3"/>
<feGaussianBlur stdDeviation="3"/>
<feColorMatrix type="matrix" values="0 0 0 0 0.788235 0 0 0 0 0.803922 0 0 0 0 0.85098 0 0 0 0.349 0"/>
<feBlend mode="normal" in2="BackgroundImageFix" result="effect1_dropShadow_594_33669"/>
<feBlend mode="normal" in="SourceGraphic" in2="effect1_dropShadow_594_33669" result="shape"/>
</filter>
</defs>
</svg>
