<svg width="56" height="57" viewBox="0 0 56 57" fill="none" xmlns="http://www.w3.org/2000/svg">
<path fill-rule="evenodd" clip-rule="evenodd" d="M22.2365 6.26265C21.9048 5.95353 21.466 5.78524 21.0126 5.79324C20.5592 5.80124 20.1267 5.9849 19.8061 6.30553C19.4854 6.62616 19.3018 7.05873 19.2938 7.5121C19.2858 7.96547 19.4541 8.40424 19.7632 8.73598L21.4432 10.416H20.9998C16.2038 10.416 11.6043 12.3212 8.21299 15.7125C4.82171 19.1038 2.9165 23.7033 2.9165 28.4993C2.9165 33.2953 4.82171 37.8949 8.21299 41.2862C11.6043 44.6774 16.2038 46.5827 20.9998 46.5827H22.1665C22.6306 46.5827 23.0758 46.3983 23.4039 46.0701C23.7321 45.7419 23.9165 45.2968 23.9165 44.8327C23.9165 44.3685 23.7321 43.9234 23.4039 43.5952C23.0758 43.267 22.6306 43.0827 22.1665 43.0827H20.9998C17.1321 43.0827 13.4228 41.5462 10.6879 38.8113C7.95296 36.0764 6.4165 32.3671 6.4165 28.4993C6.4165 24.6316 7.95296 20.9222 10.6879 18.1873C13.4228 15.4524 17.1321 13.916 20.9998 13.916H25.6665C26.0124 13.9157 26.3504 13.8129 26.6379 13.6206C26.9254 13.4283 27.1495 13.1551 27.2818 12.8355C27.4142 12.5159 27.4488 12.1643 27.3814 11.825C27.314 11.4857 27.1476 11.1741 26.9032 10.9293L22.2365 6.26265Z" fill="#FDB913"/>
<path opacity="0.5" d="M33.8334 10.418C33.3693 10.418 32.9242 10.6023 32.596 10.9305C32.2678 11.2587 32.0834 11.7038 32.0834 12.168C32.0834 12.6321 32.2678 13.0772 32.596 13.4054C32.9242 13.7336 33.3693 13.918 33.8334 13.918H35.0001C38.8678 13.918 42.5772 15.4544 45.3121 18.1893C48.047 20.9242 49.5834 24.6336 49.5834 28.5013C49.5834 32.369 48.047 36.0784 45.3121 38.8133C42.5772 41.5482 38.8678 43.0846 35.0001 43.0846H30.3334C29.9875 43.0849 29.6495 43.1877 29.362 43.3801C29.0745 43.5724 28.8504 43.8456 28.7181 44.1651C28.5858 44.4847 28.5511 44.8364 28.6185 45.1756C28.6859 45.5149 28.8523 45.8266 29.0968 46.0713L33.7634 50.738C34.0952 51.0471 34.5339 51.2154 34.9873 51.2074C35.4407 51.1994 35.8732 51.0157 36.1939 50.6951C36.5145 50.3745 36.6982 49.9419 36.7062 49.4885C36.7142 49.0351 36.5459 48.5964 36.2368 48.2646L34.5568 46.5846H35.0001C39.7961 46.5846 44.3957 44.6794 47.7869 41.2881C51.1782 37.8969 53.0834 33.2973 53.0834 28.5013C53.0834 23.7053 51.1782 19.1057 47.7869 15.7145C44.3957 12.3232 39.7961 10.418 35.0001 10.418H33.8334Z" fill="#004275"/>
</svg>
