<svg width="407" height="395" viewBox="0 0 407 395" fill="none" xmlns="http://www.w3.org/2000/svg">
<path d="M365.13 60C340.25 3.27002 280.53 -18.09 233.41 20C215.01 34.86 203.53 58.51 181 68C159.86 76.9 133.08 74.28 110.22 79.1C61.54 89.3 -4.00001 128 0.999995 187.63C3.18999 213.75 20.81 242.76 29.52 267.2C39.52 295.32 45.52 330.5 71.99 347.31C117.37 376.17 172.11 352.58 212.99 329.31C234.99 316.8 247.1 309.11 270.79 313.4C292.72 317.4 312.47 331.4 333.9 314.79C349.99 302.32 351.32 277.05 364.83 262.21C380.05 245.49 395.48 244.28 403.39 219.15C412.98 188.66 398.85 169.61 389.3 142.37C379.75 115.13 376.85 86.69 365.13 60Z" fill="#92E3A9"/>
<g opacity="0.7">
<path d="M365.13 60C340.25 3.27002 280.53 -18.09 233.41 20C215.01 34.86 203.53 58.51 181 68C159.86 76.9 133.08 74.28 110.22 79.1C61.54 89.3 -4.00001 128 0.999995 187.63C3.18999 213.75 20.81 242.76 29.52 267.2C39.52 295.32 45.52 330.5 71.99 347.31C117.37 376.17 172.11 352.58 212.99 329.31C234.99 316.8 247.1 309.11 270.79 313.4C292.72 317.4 312.47 331.4 333.9 314.79C349.99 302.32 351.32 277.05 364.83 262.21C380.05 245.49 395.48 244.28 403.39 219.15C412.98 188.66 398.85 169.61 389.3 142.37C379.75 115.13 376.85 86.69 365.13 60Z" fill="white"/>
</g>
<path d="M175.81 394.68C261.182 394.68 330.39 390.368 330.39 385.05C330.39 379.731 261.182 375.42 175.81 375.42C90.4378 375.42 21.23 379.731 21.23 385.05C21.23 390.368 90.4378 394.68 175.81 394.68Z" fill="#92E3A9"/>
<path opacity="0.8" d="M175.81 394.68C261.182 394.68 330.39 390.368 330.39 385.05C330.39 379.731 261.182 375.42 175.81 375.42C90.4378 375.42 21.23 379.731 21.23 385.05C21.23 390.368 90.4378 394.68 175.81 394.68Z" fill="white"/>
<path d="M291.97 18.86H136.54C125.809 18.86 117.11 27.5591 117.11 38.29V366.43C117.11 377.161 125.809 385.86 136.54 385.86H291.97C302.701 385.86 311.4 377.161 311.4 366.43V38.29C311.4 27.5591 302.701 18.86 291.97 18.86Z" fill="#004276"/>
<path d="M302.76 59.16H125.74V345.56H302.76V59.16Z" fill="white" stroke="#004276" stroke-width="1.33739" stroke-miterlimit="10"/>
<path d="M241.386 175.132C256.371 160.147 256.371 135.853 241.386 120.868C226.402 105.884 202.108 105.884 187.123 120.868C172.139 135.853 172.139 160.147 187.123 175.132C202.108 190.116 226.402 190.116 241.386 175.132Z" fill="#92E3A9"/>
<path d="M264.63 327.55H163.89C163.663 327.551 163.439 327.508 163.229 327.422C163.019 327.336 162.828 327.21 162.667 327.05C162.507 326.89 162.379 326.7 162.292 326.491C162.205 326.281 162.16 326.057 162.16 325.83C162.159 325.602 162.203 325.377 162.289 325.166C162.375 324.956 162.503 324.765 162.664 324.604C162.825 324.443 163.016 324.315 163.226 324.229C163.437 324.143 163.662 324.099 163.89 324.1H264.63C264.857 324.1 265.081 324.145 265.291 324.232C265.5 324.319 265.69 324.447 265.85 324.607C266.01 324.768 266.136 324.959 266.222 325.169C266.308 325.379 266.351 325.603 266.35 325.83C266.35 326.286 266.169 326.724 265.846 327.046C265.524 327.369 265.086 327.55 264.63 327.55Z" fill="#92E3A9"/>
<path d="M267.91 207.94H160.6C158.385 207.94 156.59 209.735 156.59 211.95V224.6C156.59 226.815 158.385 228.61 160.6 228.61H267.91C270.125 228.61 271.92 226.815 271.92 224.6V211.95C271.92 209.735 270.125 207.94 267.91 207.94Z" fill="#92E3A9"/>
<path d="M267.91 246.6H160.6C158.385 246.6 156.59 248.395 156.59 250.61V263.26C156.59 265.475 158.385 267.27 160.6 267.27H267.91C270.125 267.27 271.92 265.475 271.92 263.26V250.61C271.92 248.395 270.125 246.6 267.91 246.6Z" fill="#92E3A9"/>
<path d="M233.36 167.14L222.07 160.64V155.27C223.705 153.292 224.889 150.982 225.54 148.5C225.929 148.638 226.338 148.709 226.75 148.71C228.15 148.71 229.04 144.37 229.19 141.27C230.82 137.82 228.6 135.8 228.6 135.8C228.6 135.8 229.52 134.88 230.13 131.19C230.74 127.5 227.98 129.04 225.83 125.66C223.68 122.28 222.14 118.6 215.08 118.6C213.135 118.536 211.215 119.059 209.571 120.1C207.926 121.142 206.633 122.654 205.86 124.44C204.103 124.446 202.352 124.651 200.64 125.05C198.48 125.66 197.87 132.73 199.71 135.5C200.534 137.014 200.973 138.707 200.99 140.43C200.5 139.83 199.99 139.67 199.71 141.03C199.1 144.1 201.56 148.4 201.56 148.4L202.83 148.04C203.47 150.692 204.704 153.165 206.44 155.27V160.64L195.15 167.14C193.832 167.901 192.736 168.996 191.975 170.314C191.213 171.632 190.811 173.128 190.81 174.65V178.37C197.525 183.557 205.77 186.371 214.255 186.371C222.74 186.371 230.985 183.557 237.7 178.37V174.65C237.701 173.127 237.3 171.631 236.538 170.312C235.776 168.994 234.68 167.9 233.36 167.14Z" fill="#004276"/>
<path d="M171.2 262.13C170.941 262.126 170.694 262.022 170.51 261.84C170.412 261.752 170.333 261.644 170.28 261.523C170.226 261.403 170.199 261.272 170.2 261.14C170.203 260.96 170.255 260.783 170.35 260.63L172.15 257.75L168.64 257.86C168.508 257.868 168.375 257.849 168.251 257.802C168.127 257.755 168.014 257.683 167.92 257.59C167.757 257.407 167.667 257.17 167.667 256.925C167.667 256.68 167.757 256.443 167.92 256.26C168.012 256.163 168.124 256.088 168.249 256.04C168.373 255.991 168.507 255.971 168.64 255.98L172.1 256.11L170.32 253.24C170.223 253.084 170.171 252.904 170.17 252.72C170.169 252.588 170.196 252.457 170.25 252.337C170.303 252.216 170.382 252.108 170.48 252.02C170.664 251.838 170.911 251.734 171.17 251.73C171.34 251.731 171.507 251.781 171.65 251.873C171.794 251.965 171.908 252.096 171.98 252.25L173.69 255.34L175.38 252.27C175.46 252.106 175.584 251.967 175.737 251.869C175.89 251.77 176.068 251.715 176.25 251.71C176.376 251.711 176.501 251.738 176.617 251.789C176.732 251.841 176.835 251.916 176.92 252.01C177.104 252.2 177.204 252.456 177.2 252.72C177.199 252.892 177.155 253.061 177.07 253.21L175.26 256.11L178.77 255.98C178.903 255.971 179.037 255.991 179.161 256.04C179.286 256.088 179.398 256.163 179.49 256.26C179.66 256.437 179.754 256.674 179.75 256.92C179.749 257.168 179.657 257.407 179.49 257.59C179.396 257.683 179.283 257.755 179.159 257.802C179.035 257.849 178.902 257.868 178.77 257.86L175.24 257.75L177 260.6C177.099 260.759 177.151 260.943 177.15 261.13C177.15 261.395 177.045 261.65 176.857 261.837C176.67 262.025 176.415 262.13 176.15 262.13C175.979 262.128 175.811 262.075 175.669 261.979C175.527 261.884 175.416 261.748 175.35 261.59L173.68 258.59L172.02 261.59C171.946 261.747 171.831 261.88 171.686 261.976C171.541 262.071 171.373 262.124 171.2 262.13Z" fill="#004276"/>
<path d="M187.42 262.13C187.161 262.126 186.914 262.022 186.73 261.84C186.632 261.752 186.553 261.644 186.5 261.523C186.446 261.403 186.419 261.272 186.42 261.14C186.423 260.96 186.475 260.783 186.57 260.63L188.37 257.75L184.87 257.86C184.736 257.866 184.603 257.845 184.478 257.799C184.352 257.753 184.237 257.682 184.14 257.59C184.007 257.453 183.919 257.279 183.886 257.091C183.854 256.904 183.878 256.71 183.957 256.536C184.036 256.363 184.165 256.217 184.328 256.118C184.491 256.018 184.68 255.97 184.87 255.98L188.32 256.11L186.54 253.24C186.443 253.084 186.391 252.904 186.39 252.72C186.389 252.588 186.416 252.457 186.47 252.337C186.523 252.216 186.602 252.108 186.7 252.02C186.884 251.838 187.131 251.734 187.39 251.73C187.56 251.731 187.727 251.781 187.87 251.873C188.014 251.965 188.128 252.096 188.2 252.25L189.91 255.34L191.6 252.27C191.68 252.106 191.804 251.967 191.957 251.869C192.11 251.77 192.288 251.715 192.47 251.71C192.597 251.709 192.722 251.736 192.837 251.788C192.953 251.839 193.056 251.915 193.14 252.01C193.233 252.103 193.306 252.214 193.356 252.336C193.406 252.458 193.431 252.588 193.43 252.72C193.426 252.893 193.378 253.061 193.29 253.21L191.48 256.11L195 256C195.132 255.991 195.264 256.012 195.387 256.06C195.509 256.108 195.62 256.184 195.71 256.28C195.88 256.457 195.974 256.694 195.97 256.94C195.969 257.188 195.877 257.427 195.71 257.61C195.618 257.703 195.507 257.775 195.384 257.822C195.262 257.868 195.131 257.888 195 257.88L191.46 257.77L193.22 260.62C193.319 260.779 193.371 260.963 193.37 261.15C193.37 261.415 193.265 261.67 193.077 261.857C192.89 262.045 192.635 262.15 192.37 262.15C192.199 262.148 192.031 262.095 191.889 261.999C191.747 261.904 191.636 261.768 191.57 261.61L189.9 258.61L188.24 261.61C188.164 261.763 188.047 261.892 187.902 261.984C187.758 262.076 187.591 262.126 187.42 262.13Z" fill="#004276"/>
<path d="M203.65 262.13C203.388 262.129 203.136 262.025 202.95 261.84C202.852 261.752 202.773 261.644 202.72 261.523C202.666 261.403 202.639 261.272 202.64 261.14C202.643 260.96 202.695 260.783 202.79 260.63L204.59 257.75L201.09 257.86C200.902 257.868 200.715 257.819 200.554 257.72C200.394 257.621 200.266 257.477 200.188 257.305C200.11 257.133 200.084 256.942 200.115 256.756C200.145 256.57 200.231 256.397 200.36 256.26C200.454 256.164 200.569 256.089 200.695 256.04C200.82 255.992 200.955 255.972 201.09 255.98L204.54 256.11L202.76 253.24C202.663 253.084 202.611 252.904 202.61 252.72C202.613 252.589 202.642 252.459 202.695 252.339C202.749 252.219 202.825 252.111 202.92 252.02C203.106 251.835 203.358 251.731 203.62 251.73C203.789 251.733 203.953 251.783 204.095 251.875C204.236 251.967 204.349 252.097 204.42 252.25L206.13 255.34L207.82 252.27C207.9 252.106 208.024 251.967 208.177 251.869C208.33 251.77 208.508 251.715 208.69 251.71C208.817 251.709 208.942 251.736 209.057 251.788C209.173 251.839 209.276 251.915 209.36 252.01C209.453 252.103 209.526 252.214 209.576 252.336C209.626 252.458 209.651 252.588 209.65 252.72C209.646 252.893 209.598 253.061 209.51 253.21L207.7 256.11L211.22 255.98C211.349 255.967 211.48 255.982 211.603 256.024C211.726 256.066 211.839 256.133 211.934 256.222C212.029 256.311 212.103 256.42 212.153 256.54C212.202 256.661 212.225 256.79 212.22 256.92C212.222 257.167 212.133 257.405 211.97 257.59C211.876 257.683 211.763 257.755 211.639 257.802C211.515 257.849 211.382 257.868 211.25 257.86L207.72 257.75L209.47 260.6C209.569 260.759 209.621 260.943 209.62 261.13C209.617 261.261 209.588 261.391 209.535 261.511C209.481 261.631 209.405 261.739 209.31 261.83C209.223 261.924 209.118 261.998 209.001 262.05C208.884 262.102 208.758 262.129 208.63 262.13C208.46 262.127 208.294 262.074 208.154 261.978C208.014 261.882 207.904 261.747 207.84 261.59L206.16 258.59L204.5 261.59C204.425 261.752 204.305 261.889 204.154 261.985C204.004 262.081 203.829 262.131 203.65 262.13Z" fill="#004276"/>
<path d="M219.87 262.13C219.608 262.129 219.356 262.025 219.17 261.84C218.982 261.655 218.874 261.404 218.87 261.14C218.867 260.96 218.915 260.783 219.01 260.63L220.81 257.75L217.31 257.86C217.176 257.866 217.043 257.845 216.918 257.799C216.792 257.753 216.677 257.682 216.58 257.59C216.417 257.407 216.327 257.17 216.327 256.925C216.327 256.68 216.417 256.443 216.58 256.26C216.677 256.167 216.791 256.094 216.917 256.046C217.042 255.998 217.176 255.975 217.31 255.98L220.77 256.11L219 253.24C218.903 253.084 218.851 252.904 218.85 252.72C218.853 252.589 218.882 252.459 218.935 252.339C218.989 252.219 219.065 252.111 219.16 252.02C219.346 251.835 219.598 251.731 219.86 251.73C220.03 251.731 220.197 251.781 220.34 251.873C220.484 251.965 220.598 252.096 220.67 252.25L222.37 255.34L224.06 252.27C224.14 252.106 224.264 251.967 224.417 251.869C224.57 251.77 224.748 251.715 224.93 251.71C225.057 251.709 225.182 251.736 225.297 251.788C225.413 251.839 225.516 251.915 225.6 252.01C225.693 252.103 225.766 252.214 225.816 252.336C225.866 252.458 225.891 252.588 225.89 252.72C225.886 252.893 225.838 253.061 225.75 253.21L223.94 256.11L227.46 255.98C227.589 255.967 227.72 255.982 227.843 256.024C227.966 256.066 228.079 256.133 228.174 256.222C228.269 256.311 228.343 256.42 228.393 256.54C228.442 256.661 228.465 256.79 228.46 256.92C228.462 257.167 228.373 257.405 228.21 257.59C228.116 257.683 228.003 257.755 227.879 257.802C227.755 257.849 227.622 257.868 227.49 257.86L223.96 257.75L225.71 260.6C225.809 260.759 225.861 260.943 225.86 261.13C225.861 261.262 225.834 261.393 225.78 261.513C225.727 261.634 225.648 261.742 225.55 261.83C225.463 261.924 225.358 261.998 225.241 262.05C225.124 262.102 224.998 262.129 224.87 262.13C224.7 262.127 224.534 262.074 224.394 261.978C224.254 261.882 224.144 261.747 224.08 261.59L222.4 258.59L220.74 261.59C220.664 261.755 220.541 261.895 220.386 261.991C220.231 262.086 220.052 262.135 219.87 262.13Z" fill="#004276"/>
<path d="M236.09 262.13C235.828 262.129 235.576 262.025 235.39 261.84C235.235 261.683 235.136 261.479 235.109 261.26C235.082 261.042 235.128 260.82 235.24 260.63L237.03 257.75L233.53 257.86C233.396 257.866 233.263 257.845 233.138 257.799C233.012 257.753 232.897 257.682 232.8 257.59C232.637 257.407 232.547 257.17 232.547 256.925C232.547 256.68 232.637 256.443 232.8 256.26C232.897 256.167 233.011 256.094 233.137 256.046C233.262 255.998 233.396 255.975 233.53 255.98L236.99 256.11L235.21 253.24C235.113 253.084 235.061 252.904 235.06 252.72C235.064 252.456 235.172 252.205 235.36 252.02C235.546 251.835 235.798 251.731 236.06 251.73C236.23 251.731 236.397 251.781 236.54 251.873C236.684 251.965 236.798 252.096 236.87 252.25L238.57 255.34L240.26 252.27C240.34 252.106 240.464 251.967 240.617 251.869C240.77 251.77 240.948 251.715 241.13 251.71C241.258 251.709 241.385 251.736 241.502 251.787C241.619 251.839 241.724 251.915 241.81 252.01C241.994 252.2 242.094 252.456 242.09 252.72C242.086 252.893 242.038 253.061 241.95 253.21L240.14 256.11L243.66 255.98C243.789 255.967 243.92 255.982 244.043 256.024C244.166 256.066 244.279 256.133 244.374 256.222C244.469 256.311 244.543 256.42 244.593 256.54C244.642 256.661 244.665 256.79 244.66 256.92C244.662 257.167 244.573 257.405 244.41 257.59C244.316 257.683 244.203 257.755 244.079 257.802C243.955 257.849 243.822 257.868 243.69 257.86L240.16 257.75L241.91 260.6C242.009 260.759 242.061 260.943 242.06 261.13C242.061 261.262 242.034 261.393 241.98 261.513C241.927 261.634 241.848 261.742 241.75 261.83C241.663 261.924 241.558 261.998 241.441 262.05C241.324 262.102 241.198 262.129 241.07 262.13C240.9 262.127 240.734 262.074 240.594 261.978C240.454 261.882 240.344 261.747 240.28 261.59L238.6 258.59L236.94 261.59C236.865 261.752 236.745 261.889 236.594 261.985C236.444 262.081 236.269 262.131 236.09 262.13Z" fill="#004276"/>
<path d="M252.31 262.13C252.051 262.126 251.804 262.022 251.62 261.84C251.522 261.752 251.443 261.644 251.39 261.523C251.336 261.403 251.309 261.272 251.31 261.14C251.313 260.96 251.365 260.783 251.46 260.63L253.25 257.75L249.75 257.86C249.621 257.87 249.492 257.853 249.37 257.81C249.248 257.767 249.137 257.699 249.043 257.61C248.949 257.522 248.874 257.415 248.824 257.296C248.773 257.177 248.748 257.049 248.75 256.92C248.749 256.798 248.773 256.676 248.819 256.563C248.866 256.45 248.934 256.347 249.02 256.26C249.112 256.163 249.224 256.088 249.349 256.04C249.473 255.991 249.607 255.971 249.74 255.98L253.2 256.11L251.42 253.24C251.323 253.084 251.271 252.904 251.27 252.72C251.274 252.456 251.382 252.205 251.57 252.02C251.756 251.835 252.008 251.731 252.27 251.73C252.44 251.731 252.607 251.781 252.75 251.873C252.894 251.965 253.008 252.096 253.08 252.25L254.78 255.34L256.48 252.27C256.559 252.108 256.681 251.97 256.833 251.871C256.984 251.773 257.159 251.717 257.34 251.71C257.468 251.709 257.595 251.736 257.712 251.787C257.829 251.839 257.934 251.915 258.02 252.01C258.204 252.2 258.304 252.456 258.3 252.72C258.299 252.892 258.255 253.061 258.17 253.21L256.36 256.11L259.87 255.98C260.003 255.971 260.137 255.991 260.261 256.04C260.386 256.088 260.498 256.163 260.59 256.26C260.76 256.437 260.854 256.674 260.85 256.92C260.849 257.168 260.757 257.407 260.59 257.59C260.496 257.683 260.383 257.755 260.259 257.802C260.135 257.849 260.002 257.868 259.87 257.86L256.34 257.75L258.09 260.6C258.189 260.759 258.241 260.943 258.24 261.13C258.236 261.394 258.128 261.645 257.94 261.83C257.758 262.016 257.51 262.124 257.25 262.13C257.08 262.127 256.914 262.074 256.774 261.978C256.634 261.882 256.524 261.747 256.46 261.59L254.78 258.59L253.12 261.59C253.048 261.746 252.934 261.879 252.791 261.974C252.648 262.07 252.482 262.124 252.31 262.13Z" fill="#004276"/>
<g style="mix-blend-mode:multiply">
<path d="M302.76 59.54H125.74V70.63H302.76V59.54Z" fill="#92E3A9"/>
</g>
<path d="M233.5 39.11H195C194.305 39.11 193.639 38.834 193.147 38.3426C192.656 37.8513 192.38 37.1849 192.38 36.49C192.38 35.7951 192.656 35.1287 193.147 34.6374C193.639 34.146 194.305 33.87 195 33.87H233.5C234.195 33.87 234.861 34.146 235.353 34.6374C235.844 35.1287 236.12 35.7951 236.12 36.49C236.12 37.1849 235.844 37.8513 235.353 38.3426C234.861 38.834 234.195 39.11 233.5 39.11Z" fill="#92E3A9" stroke="#004276" stroke-width="1.33739" stroke-linecap="round" stroke-linejoin="round"/>
<path d="M224.75 361.74C224.752 359.662 224.138 357.631 222.985 355.903C221.832 354.174 220.192 352.827 218.273 352.031C216.354 351.235 214.242 351.026 212.204 351.431C210.166 351.836 208.294 352.836 206.825 354.305C205.356 355.774 204.356 357.646 203.951 359.684C203.546 361.722 203.755 363.834 204.551 365.753C205.347 367.672 206.694 369.312 208.423 370.465C210.151 371.618 212.182 372.232 214.26 372.23C217.041 372.227 219.708 371.121 221.675 369.155C223.641 367.188 224.747 364.521 224.75 361.74Z" fill="#92E3A9"/>
<path d="M219.58 356.42H208.94V367.06H219.58V356.42Z" fill="#92E3A9" stroke="#004276" stroke-width="1.33739" stroke-linecap="round" stroke-linejoin="round"/>
<path d="M341 241C341 241 327.06 205.58 339.47 201.37C352.39 196.98 351.82 220.37 351.32 231.77C350.27 256.13 347.58 260.66 345.57 254.71L341 241ZM336.81 268.63C340.64 273.63 341.72 268.45 334.81 245.06C331.57 234.06 324.53 211.81 313.73 220.16C303.36 228.16 328.04 257.16 328.04 257.16L336.81 268.63ZM329.41 288.93C333.06 292.17 333.13 288.08 324.46 271.19C320.39 263.28 311.78 247.27 304.73 255.19C297.96 262.83 321.03 281.4 321.03 281.4L329.41 288.93ZM321.41 313.07C325.06 316.32 325.13 312.22 316.46 295.34C312.39 287.43 303.78 271.41 296.73 279.34C290 287 313 305.57 313 305.57L321.41 313.07ZM344.51 263.93C338.67 266.21 343.31 268.69 367.7 268.62C379.14 268.62 402.5 268.1 397.52 255.39C392.75 243.18 358.01 258.73 358.01 258.73L344.51 263.93ZM337.86 280.17C331.68 281.24 335.74 284.6 359.66 289.38C370.87 291.63 393.86 295.78 391.51 282.38C389.26 269.46 352.12 277.8 352.12 277.8L337.86 280.17ZM330.42 300C325.16 300.76 328.52 303.69 348.63 308.29C358.06 310.45 377.41 314.5 375.73 303.07C374.13 292.07 342.53 298.29 342.53 298.29L330.42 300ZM324.77 318.37C319.62 319.68 323.27 322.24 343.77 324.68C353.37 325.82 373.04 327.8 370.17 316.61C367.4 305.87 336.64 315.38 336.64 315.38L324.77 318.37ZM354.91 244C351.91 250.72 358.14 249.7 379.32 231.22C389.24 222.55 409.14 204.41 393.38 195.38C378.25 186.7 361.98 228.58 361.98 228.58L354.91 244ZM325.55 342.3C322.38 344.15 325.49 344.87 340.03 341.97C346.85 340.62 360.72 337.62 356.03 331.7C351.49 326 332.89 338 332.89 338L325.55 342.3Z" fill="#92E3A9"/>
<path opacity="0.3" d="M341 241C341 241 327.06 205.58 339.47 201.37C352.39 196.98 351.82 220.37 351.32 231.77C350.27 256.13 347.58 260.66 345.57 254.71L341 241ZM336.81 268.63C340.64 273.63 341.72 268.45 334.81 245.06C331.57 234.06 324.53 211.81 313.73 220.16C303.36 228.16 328.04 257.16 328.04 257.16L336.81 268.63ZM329.41 288.93C333.06 292.17 333.13 288.08 324.46 271.19C320.39 263.28 311.78 247.27 304.73 255.19C297.96 262.83 321.03 281.4 321.03 281.4L329.41 288.93ZM321.41 313.07C325.06 316.32 325.13 312.22 316.46 295.34C312.39 287.43 303.78 271.41 296.73 279.34C290 287 313 305.57 313 305.57L321.41 313.07ZM344.51 263.93C338.67 266.21 343.31 268.69 367.7 268.62C379.14 268.62 402.5 268.1 397.52 255.39C392.75 243.18 358.01 258.73 358.01 258.73L344.51 263.93ZM337.86 280.17C331.68 281.24 335.74 284.6 359.66 289.38C370.87 291.63 393.86 295.78 391.51 282.38C389.26 269.46 352.12 277.8 352.12 277.8L337.86 280.17ZM330.42 300C325.16 300.76 328.52 303.69 348.63 308.29C358.06 310.45 377.41 314.5 375.73 303.07C374.13 292.07 342.53 298.29 342.53 298.29L330.42 300ZM324.77 318.37C319.62 319.68 323.27 322.24 343.77 324.68C353.37 325.82 373.04 327.8 370.17 316.61C367.4 305.87 336.64 315.38 336.64 315.38L324.77 318.37ZM354.91 244C351.91 250.72 358.14 249.7 379.32 231.22C389.24 222.55 409.14 204.41 393.38 195.38C378.25 186.7 361.98 228.58 361.98 228.58L354.91 244ZM325.55 342.3C322.38 344.15 325.49 344.87 340.03 341.97C346.85 340.62 360.72 337.62 356.03 331.7C351.49 326 332.89 338 332.89 338L325.55 342.3Z" fill="white"/>
<path d="M347.15 257.49L344.72 217.06ZM339.46 270.83L324.1 236.06ZM379.1 260.72L342.29 266ZM331.5 289.57L311.57 264ZM335 281.73L362.46 283.11ZM328.5 301.34L349.5 303.42ZM323.43 313.8L313 298.11ZM322.23 319.34L346.92 319.57ZM317.23 365.66C317.395 365.647 317.549 365.57 317.658 365.444C317.766 365.319 317.821 365.156 317.81 364.99C316.24 341.41 325.36 302.79 339.99 271.09C349.34 250.83 385.99 211.01 386.38 210.61C386.498 210.492 386.564 210.332 386.564 210.165C386.564 209.998 386.498 209.838 386.38 209.72C386.322 209.662 386.254 209.616 386.178 209.584C386.103 209.553 386.022 209.537 385.94 209.537C385.858 209.537 385.777 209.553 385.702 209.584C385.626 209.616 385.558 209.662 385.5 209.72C385.13 210.12 348.33 250.09 338.9 270.53C324 303 315 340.92 316.6 365.07C316.612 365.229 316.684 365.378 316.801 365.487C316.917 365.596 317.07 365.658 317.23 365.66ZM347.14 258.11C347.305 258.1 347.46 258.025 347.57 257.901C347.681 257.778 347.738 257.616 347.73 257.45L345.34 217C345.336 216.918 345.316 216.837 345.281 216.762C345.245 216.688 345.195 216.621 345.134 216.566C345.072 216.511 345.001 216.469 344.923 216.443C344.845 216.416 344.762 216.405 344.68 216.41C344.515 216.42 344.36 216.495 344.25 216.619C344.139 216.742 344.082 216.905 344.09 217.07L346.52 257.5C346.528 257.659 346.596 257.809 346.712 257.919C346.827 258.029 346.981 258.09 347.14 258.09V258.11ZM339.68 271.4C339.83 271.332 339.947 271.208 340.007 271.055C340.067 270.902 340.064 270.731 340 270.58L324.63 235.81C324.564 235.659 324.44 235.54 324.286 235.48C324.133 235.42 323.961 235.424 323.81 235.49C323.659 235.556 323.54 235.68 323.48 235.834C323.42 235.988 323.424 236.159 323.49 236.31L338.85 271.08C338.898 271.192 338.978 271.287 339.079 271.354C339.18 271.422 339.298 271.458 339.42 271.46C339.523 271.465 339.627 271.445 339.72 271.4H339.68ZM342.34 266.6L379.13 261.34C379.219 261.338 379.306 261.318 379.387 261.28C379.467 261.241 379.538 261.187 379.596 261.119C379.654 261.052 379.696 260.973 379.722 260.887C379.747 260.802 379.753 260.713 379.741 260.625C379.729 260.537 379.699 260.452 379.651 260.377C379.604 260.301 379.542 260.237 379.468 260.187C379.394 260.138 379.311 260.104 379.223 260.089C379.136 260.074 379.046 260.078 378.96 260.1L342.17 265.36C342.006 265.371 341.852 265.446 341.743 265.57C341.635 265.694 341.579 265.856 341.59 266.02C341.601 266.184 341.676 266.338 341.8 266.447C341.924 266.555 342.086 266.611 342.25 266.6H342.34ZM331.85 290.07C331.981 289.967 332.065 289.817 332.086 289.653C332.107 289.488 332.061 289.322 331.96 289.19L312.02 263.57C311.918 263.437 311.767 263.351 311.601 263.329C311.435 263.308 311.268 263.353 311.135 263.455C311.002 263.557 310.916 263.708 310.894 263.874C310.873 264.04 310.918 264.207 311.02 264.34L331 290C331.058 290.075 331.132 290.135 331.217 290.177C331.302 290.218 331.395 290.24 331.49 290.24C331.639 290.233 331.781 290.172 331.89 290.07H331.85ZM363.01 283.14C363.015 282.975 362.956 282.814 362.843 282.692C362.731 282.57 362.575 282.498 362.41 282.49L335 281.1C334.846 281.111 334.701 281.177 334.593 281.288C334.485 281.398 334.421 281.544 334.414 281.698C334.407 281.853 334.456 282.004 334.553 282.124C334.65 282.244 334.788 282.325 334.94 282.35L362.4 283.74C362.565 283.745 362.726 283.686 362.848 283.573C362.97 283.461 363.042 283.305 363.05 283.14H363.01ZM350.08 303.48C350.09 303.398 350.083 303.314 350.06 303.235C350.037 303.155 349.998 303.081 349.946 303.017C349.893 302.952 349.829 302.899 349.756 302.86C349.683 302.821 349.603 302.797 349.52 302.79L328.52 300.72C328.439 300.712 328.356 300.72 328.278 300.743C328.199 300.767 328.127 300.806 328.063 300.858C328 300.91 327.948 300.974 327.909 301.047C327.871 301.119 327.848 301.198 327.84 301.28C327.826 301.444 327.877 301.607 327.981 301.734C328.086 301.861 328.236 301.942 328.4 301.96L349.4 304.04H349.46C349.621 304.051 349.781 303.999 349.904 303.894C350.027 303.79 350.105 303.641 350.12 303.48H350.08ZM323.73 314.32C323.869 314.228 323.966 314.085 323.999 313.922C324.033 313.759 324.001 313.589 323.91 313.45L313.53 297.76C313.435 297.625 313.291 297.532 313.129 297.5C312.967 297.468 312.799 297.501 312.66 297.59C312.521 297.682 312.424 297.825 312.391 297.988C312.357 298.151 312.389 298.321 312.48 298.46L322.86 314.15C322.919 314.236 322.999 314.306 323.091 314.355C323.183 314.403 323.286 314.429 323.39 314.43C323.525 314.437 323.659 314.399 323.77 314.32H323.73ZM347.55 319.57C347.548 319.405 347.482 319.248 347.366 319.131C347.251 319.013 347.095 318.945 346.93 318.94L322.24 318.71C322.076 318.71 321.918 318.775 321.802 318.892C321.685 319.008 321.62 319.166 321.62 319.33C321.617 319.413 321.631 319.495 321.661 319.572C321.692 319.649 321.737 319.719 321.795 319.778C321.853 319.837 321.922 319.883 321.999 319.915C322.075 319.946 322.157 319.961 322.24 319.96L346.93 320.19C347.014 320.194 347.099 320.181 347.178 320.152C347.257 320.123 347.33 320.078 347.391 320.02C347.453 319.962 347.502 319.892 347.536 319.815C347.571 319.738 347.589 319.654 347.59 319.57H347.55ZM314.42 356.49C314.47 356.38 318.68 344.78 331.34 342.01C331.503 341.974 331.645 341.875 331.735 341.734C331.825 341.594 331.856 341.423 331.82 341.26C331.78 341.1 331.679 340.962 331.539 340.874C331.4 340.787 331.232 340.757 331.07 340.79C317.72 343.71 313.29 355.96 313.24 356.08C313.189 356.238 313.2 356.41 313.273 356.559C313.346 356.708 313.474 356.823 313.63 356.88H313.83C313.963 356.891 314.096 356.86 314.21 356.789C314.323 356.719 314.411 356.614 314.46 356.49H314.42ZM317.23 365.66C317.395 365.647 317.549 365.57 317.658 365.444C317.766 365.319 317.821 365.156 317.81 364.99C316.24 341.41 325.36 302.79 339.99 271.09C349.34 250.83 385.99 211.01 386.38 210.61C386.498 210.492 386.564 210.332 386.564 210.165C386.564 209.998 386.498 209.838 386.38 209.72C386.322 209.662 386.254 209.616 386.178 209.584C386.103 209.553 386.022 209.537 385.94 209.537C385.858 209.537 385.777 209.553 385.702 209.584C385.626 209.616 385.558 209.662 385.5 209.72C385.13 210.12 348.33 250.09 338.9 270.53C324 303 315 340.92 316.6 365.07C316.612 365.229 316.684 365.378 316.801 365.487C316.917 365.596 317.07 365.658 317.23 365.66ZM347.14 258.11C347.305 258.1 347.46 258.025 347.57 257.901C347.681 257.778 347.738 257.616 347.73 257.45L345.34 217C345.336 216.918 345.316 216.837 345.281 216.762C345.245 216.688 345.195 216.621 345.134 216.566C345.072 216.511 345.001 216.469 344.923 216.443C344.845 216.416 344.762 216.405 344.68 216.41C344.515 216.42 344.36 216.495 344.25 216.619C344.139 216.742 344.082 216.905 344.09 217.07L346.52 257.5C346.528 257.659 346.596 257.809 346.712 257.919C346.827 258.029 346.981 258.09 347.14 258.09V258.11ZM339.68 271.4C339.83 271.332 339.947 271.208 340.007 271.055C340.067 270.902 340.064 270.731 340 270.58L324.63 235.81C324.564 235.659 324.44 235.54 324.286 235.48C324.133 235.42 323.961 235.424 323.81 235.49C323.659 235.556 323.54 235.68 323.48 235.834C323.42 235.988 323.424 236.159 323.49 236.31L338.85 271.08C338.898 271.192 338.978 271.287 339.079 271.354C339.18 271.422 339.298 271.458 339.42 271.46C339.523 271.465 339.627 271.445 339.72 271.4H339.68ZM342.34 266.6L379.13 261.34C379.219 261.338 379.306 261.318 379.387 261.28C379.467 261.241 379.538 261.187 379.596 261.119C379.654 261.052 379.696 260.973 379.722 260.887C379.747 260.802 379.753 260.713 379.741 260.625C379.729 260.537 379.699 260.452 379.651 260.377C379.604 260.301 379.542 260.237 379.468 260.187C379.394 260.138 379.311 260.104 379.223 260.089C379.136 260.074 379.046 260.078 378.96 260.1L342.17 265.36C342.006 265.371 341.852 265.446 341.743 265.57C341.635 265.694 341.579 265.856 341.59 266.02C341.601 266.184 341.676 266.338 341.8 266.447C341.924 266.555 342.086 266.611 342.25 266.6H342.34ZM331.85 290.07C331.981 289.967 332.065 289.817 332.086 289.653C332.107 289.488 332.061 289.322 331.96 289.19L312.02 263.57C311.969 263.504 311.906 263.449 311.835 263.408C311.763 263.367 311.684 263.34 311.601 263.329C311.519 263.319 311.436 263.324 311.356 263.346C311.276 263.367 311.201 263.404 311.135 263.455C311.069 263.506 311.014 263.569 310.973 263.64C310.932 263.712 310.905 263.792 310.894 263.874C310.884 263.956 310.889 264.039 310.911 264.119C310.932 264.199 310.969 264.274 311.02 264.34L331 290C331.058 290.075 331.132 290.135 331.217 290.177C331.302 290.218 331.395 290.24 331.49 290.24C331.639 290.233 331.781 290.172 331.89 290.07H331.85ZM363.01 283.14C363.015 282.975 362.956 282.814 362.843 282.692C362.731 282.57 362.575 282.498 362.41 282.49L335 281.1C334.846 281.111 334.701 281.177 334.593 281.288C334.485 281.398 334.421 281.544 334.414 281.698C334.407 281.853 334.456 282.004 334.553 282.124C334.65 282.244 334.788 282.325 334.94 282.35L362.4 283.74C362.565 283.745 362.726 283.686 362.848 283.573C362.97 283.461 363.042 283.305 363.05 283.14H363.01ZM350.08 303.48C350.09 303.398 350.083 303.314 350.06 303.235C350.037 303.155 349.998 303.081 349.946 303.017C349.893 302.952 349.829 302.899 349.756 302.86C349.683 302.821 349.603 302.797 349.52 302.79L328.52 300.72C328.439 300.712 328.356 300.72 328.278 300.743C328.199 300.767 328.127 300.806 328.063 300.858C328 300.91 327.948 300.974 327.909 301.047C327.871 301.119 327.848 301.198 327.84 301.28C327.826 301.444 327.877 301.607 327.981 301.734C328.086 301.861 328.236 301.942 328.4 301.96L349.4 304.04H349.46C349.621 304.051 349.781 303.999 349.904 303.894C350.027 303.79 350.105 303.641 350.12 303.48H350.08ZM323.73 314.32C323.869 314.228 323.966 314.085 323.999 313.922C324.033 313.759 324.001 313.589 323.91 313.45L313.53 297.76C313.435 297.625 313.291 297.532 313.129 297.5C312.967 297.468 312.799 297.501 312.66 297.59C312.521 297.682 312.424 297.825 312.391 297.988C312.357 298.151 312.389 298.321 312.48 298.46L322.86 314.15C322.919 314.236 322.999 314.306 323.091 314.355C323.183 314.403 323.286 314.429 323.39 314.43C323.525 314.437 323.659 314.399 323.77 314.32H323.73ZM347.55 319.57C347.548 319.405 347.482 319.248 347.366 319.131C347.251 319.013 347.095 318.945 346.93 318.94L322.24 318.71C322.076 318.71 321.918 318.775 321.802 318.892C321.685 319.008 321.62 319.166 321.62 319.33C321.617 319.413 321.631 319.495 321.661 319.572C321.692 319.649 321.737 319.719 321.795 319.778C321.853 319.837 321.922 319.883 321.999 319.915C322.075 319.946 322.157 319.961 322.24 319.96L346.93 320.19C347.014 320.194 347.099 320.181 347.178 320.152C347.257 320.123 347.33 320.078 347.391 320.02C347.453 319.962 347.502 319.892 347.536 319.815C347.571 319.738 347.589 319.654 347.59 319.57H347.55ZM314.42 356.49C314.47 356.38 318.68 344.78 331.34 342.01C331.503 341.974 331.645 341.875 331.735 341.734C331.825 341.594 331.856 341.423 331.82 341.26C331.78 341.1 331.679 340.962 331.539 340.874C331.4 340.787 331.232 340.757 331.07 340.79C317.72 343.71 313.29 355.96 313.24 356.08C313.189 356.238 313.2 356.41 313.273 356.559C313.346 356.708 313.474 356.823 313.63 356.88H313.83C313.963 356.891 314.096 356.86 314.21 356.789C314.323 356.719 314.411 356.614 314.46 356.49H314.42Z" fill="#92E3A9"/>
<path opacity="0.2" d="M347.15 257.49L344.72 217.06ZM339.46 270.83L324.1 236.06ZM379.1 260.72L342.29 266ZM331.5 289.57L311.57 264ZM335 281.73L362.46 283.11ZM328.5 301.34L349.5 303.42ZM323.43 313.8L313 298.11ZM322.23 319.34L346.92 319.57ZM317.23 365.66C317.395 365.647 317.549 365.57 317.658 365.444C317.766 365.319 317.821 365.156 317.81 364.99C316.24 341.41 325.36 302.79 339.99 271.09C349.34 250.83 385.99 211.01 386.38 210.61C386.498 210.492 386.564 210.332 386.564 210.165C386.564 209.998 386.498 209.838 386.38 209.72C386.322 209.662 386.254 209.616 386.178 209.584C386.103 209.553 386.022 209.537 385.94 209.537C385.858 209.537 385.777 209.553 385.702 209.584C385.626 209.616 385.558 209.662 385.5 209.72C385.13 210.12 348.33 250.09 338.9 270.53C324 303 315 340.92 316.6 365.07C316.612 365.229 316.684 365.378 316.801 365.487C316.917 365.596 317.07 365.658 317.23 365.66ZM347.14 258.11C347.305 258.1 347.46 258.025 347.57 257.901C347.681 257.778 347.738 257.616 347.73 257.45L345.34 217C345.336 216.918 345.316 216.837 345.281 216.762C345.245 216.688 345.195 216.621 345.134 216.566C345.072 216.511 345.001 216.469 344.923 216.443C344.845 216.416 344.762 216.405 344.68 216.41C344.515 216.42 344.36 216.495 344.25 216.619C344.139 216.742 344.082 216.905 344.09 217.07L346.52 257.5C346.528 257.659 346.596 257.809 346.712 257.919C346.827 258.029 346.981 258.09 347.14 258.09V258.11ZM339.68 271.4C339.83 271.332 339.947 271.208 340.007 271.055C340.067 270.902 340.064 270.731 340 270.58L324.63 235.81C324.564 235.659 324.44 235.54 324.286 235.48C324.133 235.42 323.961 235.424 323.81 235.49C323.659 235.556 323.54 235.68 323.48 235.834C323.42 235.988 323.424 236.159 323.49 236.31L338.85 271.08C338.898 271.192 338.978 271.287 339.079 271.354C339.18 271.422 339.298 271.458 339.42 271.46C339.523 271.465 339.627 271.445 339.72 271.4H339.68ZM342.34 266.6L379.13 261.34C379.219 261.338 379.306 261.318 379.387 261.28C379.467 261.241 379.538 261.187 379.596 261.119C379.654 261.052 379.696 260.973 379.722 260.887C379.747 260.802 379.753 260.713 379.741 260.625C379.729 260.537 379.699 260.452 379.651 260.377C379.604 260.301 379.542 260.237 379.468 260.187C379.394 260.138 379.311 260.104 379.223 260.089C379.136 260.074 379.046 260.078 378.96 260.1L342.17 265.36C342.006 265.371 341.852 265.446 341.743 265.57C341.635 265.694 341.579 265.856 341.59 266.02C341.601 266.184 341.676 266.338 341.8 266.447C341.924 266.555 342.086 266.611 342.25 266.6H342.34ZM331.85 290.07C331.981 289.967 332.065 289.817 332.086 289.653C332.107 289.488 332.061 289.322 331.96 289.19L312.02 263.57C311.918 263.437 311.767 263.351 311.601 263.329C311.435 263.308 311.268 263.353 311.135 263.455C311.002 263.557 310.916 263.708 310.894 263.874C310.873 264.04 310.918 264.207 311.02 264.34L331 290C331.058 290.075 331.132 290.135 331.217 290.177C331.302 290.218 331.395 290.24 331.49 290.24C331.639 290.233 331.781 290.172 331.89 290.07H331.85ZM363.01 283.14C363.015 282.975 362.956 282.814 362.843 282.692C362.731 282.57 362.575 282.498 362.41 282.49L335 281.1C334.846 281.111 334.701 281.177 334.593 281.288C334.485 281.398 334.421 281.544 334.414 281.698C334.407 281.853 334.456 282.004 334.553 282.124C334.65 282.244 334.788 282.325 334.94 282.35L362.4 283.74C362.565 283.745 362.726 283.686 362.848 283.573C362.97 283.461 363.042 283.305 363.05 283.14H363.01ZM350.08 303.48C350.09 303.398 350.083 303.314 350.06 303.235C350.037 303.155 349.998 303.081 349.946 303.017C349.893 302.952 349.829 302.899 349.756 302.86C349.683 302.821 349.603 302.797 349.52 302.79L328.52 300.72C328.439 300.712 328.356 300.72 328.278 300.743C328.199 300.767 328.127 300.806 328.063 300.858C328 300.91 327.948 300.974 327.909 301.047C327.871 301.119 327.848 301.198 327.84 301.28C327.826 301.444 327.877 301.607 327.981 301.734C328.086 301.861 328.236 301.942 328.4 301.96L349.4 304.04H349.46C349.621 304.051 349.781 303.999 349.904 303.894C350.027 303.79 350.105 303.641 350.12 303.48H350.08ZM323.73 314.32C323.869 314.228 323.966 314.085 323.999 313.922C324.033 313.759 324.001 313.589 323.91 313.45L313.53 297.76C313.435 297.625 313.291 297.532 313.129 297.5C312.967 297.468 312.799 297.501 312.66 297.59C312.521 297.682 312.424 297.825 312.391 297.988C312.357 298.151 312.389 298.321 312.48 298.46L322.86 314.15C322.919 314.236 322.999 314.306 323.091 314.355C323.183 314.403 323.286 314.429 323.39 314.43C323.525 314.437 323.659 314.399 323.77 314.32H323.73ZM347.55 319.57C347.548 319.405 347.482 319.248 347.366 319.131C347.251 319.013 347.095 318.945 346.93 318.94L322.24 318.71C322.076 318.71 321.918 318.775 321.802 318.892C321.685 319.008 321.62 319.166 321.62 319.33C321.617 319.413 321.631 319.495 321.661 319.572C321.692 319.649 321.737 319.719 321.795 319.778C321.853 319.837 321.922 319.883 321.999 319.915C322.075 319.946 322.157 319.961 322.24 319.96L346.93 320.19C347.014 320.194 347.099 320.181 347.178 320.152C347.257 320.123 347.33 320.078 347.391 320.02C347.453 319.962 347.502 319.892 347.536 319.815C347.571 319.738 347.589 319.654 347.59 319.57H347.55ZM314.42 356.49C314.47 356.38 318.68 344.78 331.34 342.01C331.503 341.974 331.645 341.875 331.735 341.734C331.825 341.594 331.856 341.423 331.82 341.26C331.78 341.1 331.679 340.962 331.539 340.874C331.4 340.787 331.232 340.757 331.07 340.79C317.72 343.71 313.29 355.96 313.24 356.08C313.189 356.238 313.2 356.41 313.273 356.559C313.346 356.708 313.474 356.823 313.63 356.88H313.83C313.963 356.891 314.096 356.86 314.21 356.789C314.323 356.719 314.411 356.614 314.46 356.49H314.42ZM317.23 365.66C317.395 365.647 317.549 365.57 317.658 365.444C317.766 365.319 317.821 365.156 317.81 364.99C316.24 341.41 325.36 302.79 339.99 271.09C349.34 250.83 385.99 211.01 386.38 210.61C386.498 210.492 386.564 210.332 386.564 210.165C386.564 209.998 386.498 209.838 386.38 209.72C386.322 209.662 386.254 209.616 386.178 209.584C386.103 209.553 386.022 209.537 385.94 209.537C385.858 209.537 385.777 209.553 385.702 209.584C385.626 209.616 385.558 209.662 385.5 209.72C385.13 210.12 348.33 250.09 338.9 270.53C324 303 315 340.92 316.6 365.07C316.612 365.229 316.684 365.378 316.801 365.487C316.917 365.596 317.07 365.658 317.23 365.66ZM347.14 258.11C347.305 258.1 347.46 258.025 347.57 257.901C347.681 257.778 347.738 257.616 347.73 257.45L345.34 217C345.336 216.918 345.316 216.837 345.281 216.762C345.245 216.688 345.195 216.621 345.134 216.566C345.072 216.511 345.001 216.469 344.923 216.443C344.845 216.416 344.762 216.405 344.68 216.41C344.515 216.42 344.36 216.495 344.25 216.619C344.139 216.742 344.082 216.905 344.09 217.07L346.52 257.5C346.528 257.659 346.596 257.809 346.712 257.919C346.827 258.029 346.981 258.09 347.14 258.09V258.11ZM339.68 271.4C339.83 271.332 339.947 271.208 340.007 271.055C340.067 270.902 340.064 270.731 340 270.58L324.63 235.81C324.564 235.659 324.44 235.54 324.286 235.48C324.133 235.42 323.961 235.424 323.81 235.49C323.659 235.556 323.54 235.68 323.48 235.834C323.42 235.988 323.424 236.159 323.49 236.31L338.85 271.08C338.898 271.192 338.978 271.287 339.079 271.354C339.18 271.422 339.298 271.458 339.42 271.46C339.523 271.465 339.627 271.445 339.72 271.4H339.68ZM342.34 266.6L379.13 261.34C379.219 261.338 379.306 261.318 379.387 261.28C379.467 261.241 379.538 261.187 379.596 261.119C379.654 261.052 379.696 260.973 379.722 260.887C379.747 260.802 379.753 260.713 379.741 260.625C379.729 260.537 379.699 260.452 379.651 260.377C379.604 260.301 379.542 260.237 379.468 260.187C379.394 260.138 379.311 260.104 379.223 260.089C379.136 260.074 379.046 260.078 378.96 260.1L342.17 265.36C342.006 265.371 341.852 265.446 341.743 265.57C341.635 265.694 341.579 265.856 341.59 266.02C341.601 266.184 341.676 266.338 341.8 266.447C341.924 266.555 342.086 266.611 342.25 266.6H342.34ZM331.85 290.07C331.981 289.967 332.065 289.817 332.086 289.653C332.107 289.488 332.061 289.322 331.96 289.19L312.02 263.57C311.969 263.504 311.906 263.449 311.835 263.408C311.763 263.367 311.684 263.34 311.601 263.329C311.519 263.319 311.436 263.324 311.356 263.346C311.276 263.367 311.201 263.404 311.135 263.455C311.069 263.506 311.014 263.569 310.973 263.64C310.932 263.712 310.905 263.792 310.894 263.874C310.884 263.956 310.889 264.039 310.911 264.119C310.932 264.199 310.969 264.274 311.02 264.34L331 290C331.058 290.075 331.132 290.135 331.217 290.177C331.302 290.218 331.395 290.24 331.49 290.24C331.639 290.233 331.781 290.172 331.89 290.07H331.85ZM363.01 283.14C363.015 282.975 362.956 282.814 362.843 282.692C362.731 282.57 362.575 282.498 362.41 282.49L335 281.1C334.846 281.111 334.701 281.177 334.593 281.288C334.485 281.398 334.421 281.544 334.414 281.698C334.407 281.853 334.456 282.004 334.553 282.124C334.65 282.244 334.788 282.325 334.94 282.35L362.4 283.74C362.565 283.745 362.726 283.686 362.848 283.573C362.97 283.461 363.042 283.305 363.05 283.14H363.01ZM350.08 303.48C350.09 303.398 350.083 303.314 350.06 303.235C350.037 303.155 349.998 303.081 349.946 303.017C349.893 302.952 349.829 302.899 349.756 302.86C349.683 302.821 349.603 302.797 349.52 302.79L328.52 300.72C328.439 300.712 328.356 300.72 328.278 300.743C328.199 300.767 328.127 300.806 328.063 300.858C328 300.91 327.948 300.974 327.909 301.047C327.871 301.119 327.848 301.198 327.84 301.28C327.826 301.444 327.877 301.607 327.981 301.734C328.086 301.861 328.236 301.942 328.4 301.96L349.4 304.04H349.46C349.621 304.051 349.781 303.999 349.904 303.894C350.027 303.79 350.105 303.641 350.12 303.48H350.08ZM323.73 314.32C323.869 314.228 323.966 314.085 323.999 313.922C324.033 313.759 324.001 313.589 323.91 313.45L313.53 297.76C313.435 297.625 313.291 297.532 313.129 297.5C312.967 297.468 312.799 297.501 312.66 297.59C312.521 297.682 312.424 297.825 312.391 297.988C312.357 298.151 312.389 298.321 312.48 298.46L322.86 314.15C322.919 314.236 322.999 314.306 323.091 314.355C323.183 314.403 323.286 314.429 323.39 314.43C323.525 314.437 323.659 314.399 323.77 314.32H323.73ZM347.55 319.57C347.548 319.405 347.482 319.248 347.366 319.131C347.251 319.013 347.095 318.945 346.93 318.94L322.24 318.71C322.076 318.71 321.918 318.775 321.802 318.892C321.685 319.008 321.62 319.166 321.62 319.33C321.617 319.413 321.631 319.495 321.661 319.572C321.692 319.649 321.737 319.719 321.795 319.778C321.853 319.837 321.922 319.883 321.999 319.915C322.075 319.946 322.157 319.961 322.24 319.96L346.93 320.19C347.014 320.194 347.099 320.181 347.178 320.152C347.257 320.123 347.33 320.078 347.391 320.02C347.453 319.962 347.502 319.892 347.536 319.815C347.571 319.738 347.589 319.654 347.59 319.57H347.55ZM314.42 356.49C314.47 356.38 318.68 344.78 331.34 342.01C331.503 341.974 331.645 341.875 331.735 341.734C331.825 341.594 331.856 341.423 331.82 341.26C331.78 341.1 331.679 340.962 331.539 340.874C331.4 340.787 331.232 340.757 331.07 340.79C317.72 343.71 313.29 355.96 313.24 356.08C313.189 356.238 313.2 356.41 313.273 356.559C313.346 356.708 313.474 356.823 313.63 356.88H313.83C313.963 356.891 314.096 356.86 314.21 356.789C314.323 356.719 314.411 356.614 314.46 356.49H314.42Z" fill="black"/>
<path d="M333.56 348.03H305.25V353.89H307.72L312.83 385.86H325.98L331.09 353.89H333.56V348.03Z" fill="#92E3A9"/>
<path opacity="0.3" d="M333.56 348.03H305.25V353.89H307.72L312.83 385.86H325.98L331.09 353.89H333.56V348.03Z" fill="white"/>
<path d="M78.68 170.83L45.75 160.08L42.82 152.34L36.13 152.13L23.99 149.83L25.45 152.34L40.73 163.43L44.5 165.31L78.94 183.3L78.68 170.83Z" fill="white" stroke="#004276" stroke-width="1.00396" stroke-miterlimit="10"/>
<path d="M42.82 152.34L39.68 150.46L33.41 152.76L34.45 154.01L42.82 152.34Z" fill="white" stroke="#004276" stroke-width="1.00396" stroke-linejoin="round"/>
<path d="M78.68 170.83L45.75 160.08L42.82 152.34L36.13 152.13L23.99 149.83L25.45 152.34L40.73 163.43L44.5 165.31L78.94 183.3L78.68 170.83Z" fill="white"/>
<mask id="mask0_1_103" style="mask-type:luminance" maskUnits="userSpaceOnUse" x="23" y="149" width="56" height="35">
<path d="M78.68 170.83L45.75 160.08L42.82 152.34L36.13 152.13L23.99 149.83L25.45 152.34L40.73 163.43L44.5 165.31L78.94 183.3L78.68 170.83Z" fill="white"/>
</mask>
<g mask="url(#mask0_1_103)">
<path opacity="0.5" d="M78.68 170.83L45.75 160.08L42.82 152.34L36.13 152.13L23.99 149.83L25.45 152.34L40.73 163.43L44.5 165.31L78.94 183.3L78.68 170.83Z" fill="#92E3A9" stroke="#004276" stroke-width="1.00396" stroke-miterlimit="10"/>
</g>
<path d="M78.68 170.83L45.75 160.08L42.82 152.34L36.13 152.13L23.99 149.83L25.45 152.34L40.73 163.43L44.5 165.31L78.94 183.3L78.68 170.83Z" stroke="#004276" stroke-width="1.00396" stroke-miterlimit="10"/>
<path d="M42.82 152.34L39.68 150.46L33.41 152.76L34.45 154.01L42.82 152.34Z" fill="white"/>
<mask id="mask1_1_103" style="mask-type:luminance" maskUnits="userSpaceOnUse" x="33" y="150" width="10" height="5">
<path d="M42.82 152.34L39.68 150.46L33.41 152.76L34.45 154.01L42.82 152.34Z" fill="white"/>
</mask>
<g mask="url(#mask1_1_103)">
<path opacity="0.5" d="M42.82 152.34L39.68 150.46L33.41 152.76L34.45 154.01L42.82 152.34Z" fill="#92E3A9" stroke="#004276" stroke-width="1.00396" stroke-linejoin="round"/>
</g>
<path d="M42.82 152.34L39.68 150.46L33.41 152.76L34.45 154.01L42.82 152.34Z" stroke="#004276" stroke-width="1.00396" stroke-linejoin="round"/>
<path d="M85.67 101.06C85.67 101.06 85.16 105.56 86.43 108.45C87.7 111.34 94.75 121.13 94.75 121.13L81.59 131.68C81.59 131.68 76.13 120.68 75.09 118.9C74.05 117.12 72.8 109.46 76.19 103.97C79.58 98.48 84.46 97 85.67 101.06Z" fill="white"/>
<mask id="mask2_1_103" style="mask-type:luminance" maskUnits="userSpaceOnUse" x="73" y="98" width="22" height="34">
<path d="M85.67 101.06C85.67 101.06 85.16 105.56 86.43 108.45C87.7 111.34 94.75 121.13 94.75 121.13L81.59 131.68C81.59 131.68 76.13 120.68 75.09 118.9C74.05 117.12 72.8 109.46 76.19 103.97C79.58 98.48 84.46 97 85.67 101.06Z" fill="white"/>
</mask>
<g mask="url(#mask2_1_103)">
<g style="mix-blend-mode:multiply" opacity="0.5">
<path d="M78.91 115.52L84.62 127.36L81.58 131.69L75.84 121.44L78.91 115.52Z" fill="#92E3A9"/>
</g>
</g>
<path d="M85.67 101.06C85.67 101.06 85.16 105.56 86.43 108.45C87.7 111.34 94.75 121.13 94.75 121.13L81.59 131.68C81.59 131.68 76.13 120.68 75.09 118.9C74.05 117.12 72.8 109.46 76.19 103.97C79.58 98.48 84.46 97 85.67 101.06Z" stroke="#004276" stroke-width="1.00396" stroke-miterlimit="10"/>
<path d="M89.75 92.82C88.94 87.82 83.21 77.65 74.12 78.04C68.22 78.3 65.46 79.49 62.9 80.94C60.8133 82.1695 58.8682 83.6249 57.1 85.28C52.66 90.61 51.1 92.07 51.96 96.15C51.8895 97.7774 52.1444 99.4025 52.71 100.93C54.07 104.56 55 106.93 56.18 108.66C55.82 110.35 54.88 114.81 54.83 115.83C54.78 116.85 57.83 116.14 59.37 115.75C62.23 122.15 67.47 126.59 69.1 127.1C71.94 127.99 76.43 123.32 78.81 119.7C81.19 116.08 79.39 112.01 79.4 110.39C79.41 108.77 84.75 105.21 86.73 104.08C88.71 102.95 90.55 97.81 89.75 92.82Z" fill="white"/>
<mask id="mask3_1_103" style="mask-type:luminance" maskUnits="userSpaceOnUse" x="51" y="78" width="39" height="50">
<path d="M89.75 92.82C88.94 87.82 83.21 77.65 74.12 78.04C68.22 78.3 65.46 79.49 62.9 80.94C60.8133 82.1695 58.8682 83.6249 57.1 85.28C52.66 90.61 51.1 92.07 51.96 96.15C51.8895 97.7774 52.1444 99.4025 52.71 100.93C54.07 104.56 55 106.93 56.18 108.66C55.82 110.35 54.88 114.81 54.83 115.83C54.78 116.85 57.83 116.14 59.37 115.75C62.23 122.15 67.47 126.59 69.1 127.1C71.94 127.99 76.43 123.32 78.81 119.7C81.19 116.08 79.39 112.01 79.4 110.39C79.41 108.77 84.75 105.21 86.73 104.08C88.71 102.95 90.55 97.81 89.75 92.82Z" fill="white"/>
</mask>
<g mask="url(#mask3_1_103)">
<g style="mix-blend-mode:multiply" opacity="0.5">
<path d="M52 96.15C51.9295 97.7774 52.1844 99.4025 52.75 100.93C54.11 104.56 55.04 106.93 56.22 108.66C55.86 110.35 54.92 114.81 54.87 115.83C54.82 116.85 57.87 116.14 59.41 115.75C62.27 122.15 67.51 126.59 69.14 127.1C71.98 127.99 76.47 123.32 78.85 119.7C79.4446 118.796 79.8306 117.771 79.98 116.7C79.85 116.23 79.76 115.94 79.76 115.94C79.76 115.94 78.42 121.09 75.76 120.42C73.1 119.75 69.03 114.42 66.76 112.58C64.49 110.74 65.42 108.32 64.97 105.58C64.52 102.84 57.8 100.43 57.35 98.86C56.9 97.29 58.47 90.79 58.47 90.79C58.47 90.79 61.02 87.39 60.47 88.79C60.0813 90.0039 59.9403 91.2836 60.0554 92.553C60.1705 93.8224 60.5393 95.0558 61.14 96.18C61.5616 97.0671 62.2302 97.8136 63.0658 98.3298C63.9013 98.846 64.8681 99.11 65.85 99.09L68.29 87L63.14 82.74L57.14 85.24C52.66 90.61 51.13 92.07 52 96.15Z" fill="#92E3A9"/>
</g>
</g>
<path d="M89.75 92.82C88.94 87.82 83.21 77.65 74.12 78.04C68.22 78.3 65.46 79.49 62.9 80.94C60.8133 82.1695 58.8682 83.6249 57.1 85.28C52.66 90.61 51.1 92.07 51.96 96.15C51.8895 97.7774 52.1444 99.4025 52.71 100.93C54.07 104.56 55 106.93 56.18 108.66C55.82 110.35 54.88 114.81 54.83 115.83C54.78 116.85 57.83 116.14 59.37 115.75C62.23 122.15 67.47 126.59 69.1 127.1C71.94 127.99 76.43 123.32 78.81 119.7C81.19 116.08 79.39 112.01 79.4 110.39C79.41 108.77 84.75 105.21 86.73 104.08C88.71 102.95 90.55 97.81 89.75 92.82Z" stroke="#004276" stroke-miterlimit="10"/>
<path d="M57.42 105.64L58.42 108.5C58.42 108.5 60.57 109.21 63.19 106.35" stroke="#004276" stroke-miterlimit="10" stroke-linecap="round"/>
<path d="M64.81 119C64.81 119 67.19 118.76 68.15 115.42" stroke="#004276" stroke-miterlimit="10" stroke-linecap="round"/>
<path d="M55.75 103.25C55.75 103.25 56.46 101.1 60.75 101.1" stroke="#004276" stroke-miterlimit="10" stroke-linecap="round"/>
<path d="M77.74 74.06C74.6228 73.6118 71.4792 73.3712 68.33 73.34C68.33 73.34 58.91 67.91 49.86 73.7C40.81 79.49 45.16 89.63 45.16 92.16C45.16 94.69 42.26 94.7 44.07 97.96C45.88 101.22 52 99.42 52 99.42C52.0647 98.1904 52.3896 96.9886 52.9533 95.894C53.517 94.7993 54.3067 93.8368 55.27 93.07C58.53 90.54 61.13 89.99 62.21 90.72C62.21 90.72 61.49 96.15 62.57 98.32C62.57 98.32 66.19 100.13 67.28 100.13C68.37 100.13 66.57 101.66 70.18 103.02C70.8377 103.256 71.5412 103.337 72.2353 103.255C72.9293 103.174 73.595 102.932 74.18 102.55C74.71 100.35 75.87 97.04 78.03 97.81C81.2 98.94 84.09 106.74 79.8 109.4C84.96 110.34 91.21 101.21 91.58 92.89C91.95 84.57 83.1 75 77.74 74.06Z" fill="#004276"/>
<path d="M62.37 87.15C62.37 87.15 65.03 85.72 68.29 88.78C71.55 91.84 77.89 95.93 86.29 93.68" stroke="white" stroke-width="0.5" stroke-linecap="round" stroke-linejoin="round"/>
<path d="M62 84.7C62 84.7 63.83 81.84 66.89 81.84C69.95 81.84 77.1 86.13 82.81 86.13" stroke="white" stroke-width="0.5" stroke-linecap="round" stroke-linejoin="round"/>
<path d="M59.92 90.21C59.92 90.21 56.45 85.93 53.19 89.4C49.93 92.87 52 96.15 52 96.15" stroke="white" stroke-width="0.5" stroke-linecap="round" stroke-linejoin="round"/>
<path d="M46.05 93.07C48.0385 91.2768 49.2746 88.7973 49.51 86.13C49.92 81.64 56.05 77.76 59.92 81.44" stroke="white" stroke-width="0.5" stroke-linecap="round" stroke-linejoin="round"/>
<path d="M52.37 76.74C52.37 76.74 58.5 70.82 63.6 78.37" stroke="white" stroke-width="0.5" stroke-linecap="round" stroke-linejoin="round"/>
<path d="M102.26 367.81C102.26 367.81 106.03 373.67 105.61 377.44L105.2 381.21C105.2 381.21 91.37 385 88.44 385C85.51 385 70 383.53 70 383.53L69.33 380.87C69.2831 380.674 69.3052 380.467 69.3926 380.285C69.48 380.103 69.6274 379.956 69.81 379.87L83.64 373.42L88 368.65L102.26 367.81Z" fill="white" stroke="#004276" stroke-width="1.00396" stroke-miterlimit="10"/>
<path d="M90.54 382.05C94.29 382.34 101.41 380.05 105.54 378.59L105.25 381.21C105.25 381.21 91.37 385 88.44 385C85.51 385 70 383.53 70 383.53L69.52 381.63C72 381.64 85.58 381.67 90.54 382.05Z" fill="#92E3A9" stroke="#004276" stroke-width="1.00396" stroke-miterlimit="10"/>
<path d="M83.66 373.42L63.53 382.18C63.53 382.18 61.81 386.49 63.53 387.35C65.25 388.21 102.75 387.35 102.75 387.35C102.75 387.35 105.34 380.54 101.25 375.97C97.16 371.4 83.66 373.42 83.66 373.42Z" fill="white" stroke="#004276" stroke-width="1.00396" stroke-miterlimit="10"/>
<path d="M102.75 387.35C102.75 387.35 65.25 388.21 63.53 387.35C62.7 386.93 62.67 385.72 62.86 384.57H103.41C103.278 385.515 103.057 386.446 102.75 387.35Z" fill="#92E3A9" stroke="#004276" stroke-width="1.00396" stroke-miterlimit="10"/>
<path d="M74.14 221.21C74.14 221.21 68.88 244.52 66.89 259.1C64.9 273.68 63.73 302.89 64.15 306.24C64.57 309.59 85.51 365.72 85.51 365.72L87.6 370.72L102.26 367.79C102.26 367.79 95.56 346.43 93.05 334.7C90.54 322.97 85.05 303.7 85.05 300.35C85.05 297 98.05 233.02 98.98 228.82C99.91 224.62 104.13 218.17 104.13 218.17L76.06 217.6L74.14 221.21Z" fill="#92E3A9" stroke="#004276" stroke-width="1.00396" stroke-miterlimit="10"/>
<path d="M74.14 221.21C74.14 221.21 71.06 242.5 72.33 257.3C73.6 272.1 76.33 303.61 76.33 308.3C76.33 312.99 83.9 341 84.33 349.8C85 362.51 84.06 368.8 84.06 368.8L83.61 373.41C83.61 373.41 92.44 374.67 94.37 375.22C96.5991 375.794 98.8996 376.044 101.2 375.96C101.2 375.96 104.41 361.83 104.41 349.79C104.41 337.75 101.74 312.97 100.41 302.93C99.08 292.89 103.27 254.16 105.65 246.93C108.03 239.7 113.23 224.39 109.73 216.57C106.23 208.75 74.14 221.21 74.14 221.21Z" fill="#92E3A9" stroke="#004276" stroke-width="1.00396" stroke-miterlimit="10"/>
<path d="M113.62 212.65L113.3 222.17C113.3 222.17 107.6 223.3 99.92 224.63C93.58 225.73 77.66 224.34 72.3 223.82C71.8116 223.777 71.36 223.542 71.0435 223.168C70.727 222.793 70.5712 222.309 70.61 221.82L71.13 213.22L113.62 212.65Z" fill="#004276"/>
<path d="M91.34 117.75C91.34 117.75 82.34 127.48 78.95 133.53C75.56 139.58 74.22 148.85 72.95 156.15C71.68 163.45 75.12 180.59 74.15 188.46L71.08 213.25C71.08 213.25 70.42 214.93 72.63 216.77C74.84 218.61 85.63 219.28 95.38 219.77C98.94 219.95 109.57 217.66 111.31 217.55C113.41 217.42 113.48 214.75 113.57 212.65C113.99 202.78 115.77 176.47 116.94 165.01C119.35 141.64 106.16 119.08 91.34 117.75Z" fill="white" stroke="#004276" stroke-width="1.00396" stroke-miterlimit="10"/>
<g style="mix-blend-mode:multiply">
<path d="M115.84 178.3C116.24 173.11 116.64 168.4 116.99 165.01C117.09 164.01 117.15 163.01 117.2 162.01L93.29 166.01L72.75 159.01C72.7522 163.26 72.9926 167.507 73.47 171.73L93.62 177.37L115.84 178.3Z" fill="#92E3A9"/>
</g>
<g style="mix-blend-mode:multiply">
<path d="M90.45 118.73C89.09 120.24 86.39 123.31 83.82 126.57L99 142L104 140L90.45 118.73Z" fill="#92E3A9"/>
</g>
<path d="M91.34 117.75C91.34 117.75 82.34 127.48 78.95 133.53C77.9448 135.369 77.1305 137.305 76.52 139.31L94.62 118.4C93.5507 118.076 92.452 117.858 91.34 117.75Z" fill="#004276"/>
<g style="mix-blend-mode:multiply">
<path d="M73.65 152.21L93.29 158.67L117.14 155.93C116.766 149.989 115.446 144.145 113.23 138.62L94 146.33L76.81 138.54C75.4044 143.008 74.3479 147.578 73.65 152.21Z" fill="#92E3A9"/>
</g>
<g style="mix-blend-mode:multiply">
<path d="M107.46 202.78C97.4987 204.453 87.2777 203.617 77.72 200.35L72.93 198.71L71.44 210.71L76.9 212.24C87.2797 215.142 98.1282 215.978 108.83 214.7L113.24 214.17C113.47 213.684 113.599 213.157 113.62 212.62C113.74 209.95 113.95 206.07 114.22 201.62L107.46 202.78Z" fill="#92E3A9"/>
</g>
<g style="mix-blend-mode:multiply">
<path d="M110.13 186.44C100.168 188.119 89.9448 187.28 80.39 184L74.29 181.91C74.4413 184.089 74.4112 186.276 74.2 188.45L73.49 194.22L79.57 195.92C89.9457 198.825 100.791 199.664 111.49 198.39L114.49 198.03C114.74 194.03 115.03 189.77 115.34 185.56L110.13 186.44Z" fill="#92E3A9"/>
</g>
<path d="M16.3112 144.152L35.6466 159.698L36.48 158.662L17.1446 143.115L16.3112 144.152Z" fill="#004276"/>
<path d="M100.65 128.54C100.65 128.54 107.74 133.37 107.9 144.78C107.97 149.78 107.45 154.45 106.3 162.64C105.15 170.83 98.01 197.5 92.45 200.74C86.89 203.98 78.26 197.86 78.26 197.86L36.52 170.15L26.43 162L21.43 152.56L23 149.56L35.31 159L28.68 152.87L29.98 151.22L32.38 152.89L39.38 155.51L40.91 165.51L43.07 166.99L83 181.58C83 181.58 82.5 160.09 82.87 155.98C83.24 151.87 83.75 141.54 88.15 134.05" fill="white"/>
<mask id="mask4_1_103" style="mask-type:luminance" maskUnits="userSpaceOnUse" x="21" y="128" width="87" height="74">
<path d="M100.65 128.54C100.65 128.54 107.74 133.37 107.9 144.78C107.97 149.78 107.45 154.45 106.3 162.64C105.15 170.83 98.01 197.5 92.45 200.74C86.89 203.98 78.26 197.86 78.26 197.86L36.52 170.15L26.43 162L21.43 152.56L23 149.56L35.31 159L28.68 152.87L29.98 151.22L32.38 152.89L39.38 155.51L40.91 165.51L43.07 166.99L83 181.58C83 181.58 82.5 160.09 82.87 155.98C83.24 151.87 83.75 141.54 88.15 134.05" fill="white"/>
</mask>
<g mask="url(#mask4_1_103)">
<g style="mix-blend-mode:multiply" opacity="0.5">
<path d="M82.72 165.34C82.72 172.76 82.97 181.58 82.97 181.58L43.08 167.05L40.92 165.57L39.39 155.57L32.39 152.95L30 151.25L28.7 152.9L35.31 159L23 149.56L21.51 152.51L26.51 161.95L36.6 170.15L39.14 171.84L94.29 189.61L82.72 165.34Z" fill="#92E3A9"/>
</g>
</g>
<path d="M100.65 128.54C100.65 128.54 107.74 133.37 107.9 144.78C107.97 149.78 107.45 154.45 106.3 162.64C105.15 170.83 98.01 197.5 92.45 200.74C86.89 203.98 78.26 197.86 78.26 197.86L36.52 170.15L26.43 162L21.43 152.56L23 149.56L35.31 159L28.68 152.87L29.98 151.22L32.38 152.89L39.38 155.51L40.91 165.51L43.07 166.99L83 181.58C83 181.58 82.5 160.09 82.87 155.98C83.24 151.87 83.75 141.54 88.15 134.05" stroke="#004276" stroke-width="1.00396" stroke-miterlimit="10"/>
<path d="M83 181.58L98.24 192.58L102.19 185.58C102.19 185.58 104.92 183.43 105.32 181.81C105.72 180.19 105.21 177.56 105.62 175.94C106.03 174.32 108.07 172.8 108.26 168.88C108.45 164.96 108.26 161.69 108.26 161.69C108.26 161.69 111.56 148.12 111.2 142.22C110.84 136.32 105.15 125.89 100.59 125.66C96.03 125.43 90.1 126.12 85.5 133.08C80.9 140.04 81.84 160.36 81.12 161.63C80.4 162.9 81.4 169.17 81.4 169.17C81.0003 169.468 80.6688 169.848 80.4274 170.284C80.186 170.72 80.0403 171.203 80 171.7C79.92 173.33 81.68 177.34 81.68 177.34L83 181.58Z" fill="white" stroke="#004276" stroke-width="1.00396" stroke-miterlimit="10"/>
<g style="mix-blend-mode:multiply">
<path d="M81.52 156.41C81.5514 158.155 81.4208 159.899 81.13 161.62C80.49 162.76 81.22 167.91 81.38 168.96C89.9518 171.622 99.0158 172.306 107.89 170.96C108.081 170.265 108.195 169.55 108.23 168.83C108.43 164.92 108.23 161.64 108.23 161.64C108.23 161.64 108.52 160.43 108.92 158.59C99.7294 159.174 90.5026 158.44 81.52 156.41Z" fill="#92E3A9"/>
</g>
<g style="mix-blend-mode:multiply">
<path d="M84.88 134.19C83.45 137.06 82.65 141.37 82.19 145.74C91.2681 149.205 101.056 150.396 110.7 149.21C111.085 146.897 111.256 144.554 111.21 142.21C111.037 140.357 110.599 138.539 109.91 136.81C101.489 137.007 93.0777 136.126 84.88 134.19Z" fill="#92E3A9"/>
</g>
<path d="M81.68 177.45L82.97 181.58L98.21 192.58L102.16 185.58C102.16 185.58 104.89 183.43 105.29 181.81C105.361 181.528 105.405 181.24 105.42 180.95C97.3889 180.811 89.4094 179.635 81.68 177.45Z" fill="#004276"/>
<path d="M92.71 375.09C92.71 375.09 93.05 366.43 94.71 353.77C96.37 341.11 92.38 323.13 91.71 320.13C91.04 317.13 92.05 310.47 91.38 308.13C90.71 305.79 87.47 295.81 89.38 284.23C91.29 272.65 92.84 242.04 92.84 242.04C92.84 242.04 88.03 238.13 86.62 233.04C85.21 227.95 86.29 226.35 86.29 226.35" stroke="#004276" stroke-width="1.00396" stroke-miterlimit="10"/>
<path d="M94.94 226.82L93.09 237.06" stroke="#004276" stroke-width="1.00396" stroke-miterlimit="10"/>
</svg>
